M48
; DRILL file {KiCad 6.0.6-3a73a75311~116~ubuntu22.04.1} date Mon Jun 27 19:14:01 2022
; FORMAT={-:-/ absolute / metric / decimal}
; #@! TF.CreationDate,2022-06-27T19:14:01+01:00
; #@! TF.GenerationSoftware,Kicad,Pcbnew,6.0.6-3a73a75311~116~ubuntu22.04.1
; #@! TF.FileFunction,MixedPlating,1,2
FMAT,2
METRIC
; #@! TA.AperFunction,Plated,PTH,ViaDrill
T1C0.400
; #@! TA.AperFunction,Plated,PTH,ComponentDrill
T2C0.450
; #@! TA.AperFunction,Plated,PTH,ComponentDrill
T3C1.000
; #@! TA.AperFunction,NonPlated,NPTH,ComponentDrill
T4C0.650
%
G90
G05
T1
X149.0Y-93.0
X152.5Y-95.5
X154.5Y-93.5
X158.5Y-100.0
X161.5Y-90.5
X161.5Y-91.5
X161.5Y-93.0
X163.5Y-92.0
X165.0Y-103.5
X166.0Y-103.0
X167.5Y-92.0
T3
X171.725Y-102.5
X174.265Y-102.5
X178.475Y-89.88
X178.475Y-92.42
X178.475Y-94.96
X178.475Y-97.5
X178.475Y-100.04
X178.475Y-102.58
T4
X145.53Y-94.0
X145.53Y-98.0
T2
X143.8Y-92.425G85X143.0Y-92.425
G05
X143.8Y-99.575G85X143.0Y-99.575
G05
X147.25Y-92.425G85X146.45Y-92.425
G05
X147.25Y-99.575G85X146.45Y-99.575
G05
T0
M30
