G04 #@! TF.GenerationSoftware,KiCad,Pcbnew,6.0.6-3a73a75311~116~ubuntu22.04.1*
G04 #@! TF.CreationDate,2022-07-02T17:15:35+01:00*
G04 #@! TF.ProjectId,CH340G_Programmer,43483334-3047-45f5-9072-6f6772616d6d,rev?*
G04 #@! TF.SameCoordinates,Original*
G04 #@! TF.FileFunction,Legend,Bot*
G04 #@! TF.FilePolarity,Positive*
%FSLAX46Y46*%
G04 Gerber Fmt 4.6, Leading zero omitted, Abs format (unit mm)*
G04 Created by KiCad (PCBNEW 6.0.6-3a73a75311~116~ubuntu22.04.1) date 2022-07-02 17:15:35*
%MOMM*%
%LPD*%
G01*
G04 APERTURE LIST*
%ADD10C,0.378363*%
%ADD11C,0.200000*%
%ADD12C,0.150000*%
G04 APERTURE END LIST*
D10*
G36*
X161006790Y-94320279D02*
G01*
X160276394Y-95952317D01*
X162423545Y-98994666D01*
X157643475Y-95955404D01*
X158373872Y-94323367D01*
X156226720Y-91281017D01*
X161006790Y-94320279D01*
G37*
X161006790Y-94320279D02*
X160276394Y-95952317D01*
X162423545Y-98994666D01*
X157643475Y-95955404D01*
X158373872Y-94323367D01*
X156226720Y-91281017D01*
X161006790Y-94320279D01*
D11*
X169976190Y-101404761D02*
X168738095Y-101404761D01*
X169404761Y-102166666D01*
X169119047Y-102166666D01*
X168928571Y-102261904D01*
X168833333Y-102357142D01*
X168738095Y-102547619D01*
X168738095Y-103023809D01*
X168833333Y-103214285D01*
X168928571Y-103309523D01*
X169119047Y-103404761D01*
X169690476Y-103404761D01*
X169880952Y-103309523D01*
X169976190Y-103214285D01*
X168166666Y-101404761D02*
X167500000Y-103404761D01*
X166833333Y-101404761D01*
X166357142Y-101404761D02*
X165119047Y-101404761D01*
X165785714Y-102166666D01*
X165500000Y-102166666D01*
X165309523Y-102261904D01*
X165214285Y-102357142D01*
X165119047Y-102547619D01*
X165119047Y-103023809D01*
X165214285Y-103214285D01*
X165309523Y-103309523D01*
X165500000Y-103404761D01*
X166071428Y-103404761D01*
X166261904Y-103309523D01*
X166357142Y-103214285D01*
X157047619Y-94571428D02*
X156571428Y-95904761D01*
X156095238Y-94571428D01*
X154095238Y-94952380D02*
X154190476Y-94857142D01*
X154380952Y-94761904D01*
X154571428Y-94761904D01*
X154761904Y-94857142D01*
X154857142Y-94952380D01*
X154952380Y-95142857D01*
X154952380Y-95333333D01*
X154857142Y-95523809D01*
X154761904Y-95619047D01*
X154571428Y-95714285D01*
X154380952Y-95714285D01*
X154190476Y-95619047D01*
X154095238Y-95523809D01*
X154095238Y-94761904D02*
X154095238Y-95523809D01*
X154000000Y-95619047D01*
X153904761Y-95619047D01*
X153714285Y-95523809D01*
X153619047Y-95333333D01*
X153619047Y-94857142D01*
X153809523Y-94571428D01*
X154095238Y-94380952D01*
X154476190Y-94285714D01*
X154857142Y-94380952D01*
X155142857Y-94571428D01*
X155333333Y-94857142D01*
X155428571Y-95238095D01*
X155333333Y-95619047D01*
X155142857Y-95904761D01*
X154857142Y-96095238D01*
X154476190Y-96190476D01*
X154095238Y-96095238D01*
X153809523Y-95904761D01*
X152761904Y-94571428D02*
X152761904Y-95904761D01*
X152761904Y-94761904D02*
X152666666Y-94666666D01*
X152476190Y-94571428D01*
X152190476Y-94571428D01*
X152000000Y-94666666D01*
X151904761Y-94857142D01*
X151904761Y-95904761D01*
X150095238Y-95809523D02*
X150285714Y-95904761D01*
X150666666Y-95904761D01*
X150857142Y-95809523D01*
X150952380Y-95714285D01*
X151047619Y-95523809D01*
X151047619Y-94952380D01*
X150952380Y-94761904D01*
X150857142Y-94666666D01*
X150666666Y-94571428D01*
X150285714Y-94571428D01*
X150095238Y-94666666D01*
X148476190Y-95809523D02*
X148666666Y-95904761D01*
X149047619Y-95904761D01*
X149238095Y-95809523D01*
X149333333Y-95619047D01*
X149333333Y-94857142D01*
X149238095Y-94666666D01*
X149047619Y-94571428D01*
X148666666Y-94571428D01*
X148476190Y-94666666D01*
X148380952Y-94857142D01*
X148380952Y-95047619D01*
X149333333Y-95238095D01*
X147523809Y-95714285D02*
X147428571Y-95809523D01*
X147523809Y-95904761D01*
X147619047Y-95809523D01*
X147523809Y-95714285D01*
X147523809Y-95904761D01*
X146571428Y-95904761D02*
X146571428Y-94571428D01*
X146571428Y-94761904D02*
X146476190Y-94666666D01*
X146285714Y-94571428D01*
X146000000Y-94571428D01*
X145809523Y-94666666D01*
X145714285Y-94857142D01*
X145714285Y-95904761D01*
X145714285Y-94857142D02*
X145619047Y-94666666D01*
X145428571Y-94571428D01*
X145142857Y-94571428D01*
X144952380Y-94666666D01*
X144857142Y-94857142D01*
X144857142Y-95904761D01*
X143142857Y-95809523D02*
X143333333Y-95904761D01*
X143714285Y-95904761D01*
X143904761Y-95809523D01*
X144000000Y-95619047D01*
X144000000Y-94857142D01*
X143904761Y-94666666D01*
X143714285Y-94571428D01*
X143333333Y-94571428D01*
X143142857Y-94666666D01*
X143047619Y-94857142D01*
X143047619Y-95047619D01*
X144000000Y-95238095D01*
X175214285Y-89727187D02*
X174928571Y-89822425D01*
X174833333Y-89917664D01*
X174738095Y-90108140D01*
X174738095Y-90393854D01*
X174833333Y-90584330D01*
X174928571Y-90679568D01*
X175119047Y-90774806D01*
X175880952Y-90774806D01*
X175880952Y-88774806D01*
X175214285Y-88774806D01*
X175023809Y-88870045D01*
X174928571Y-88965283D01*
X174833333Y-89155759D01*
X174833333Y-89346235D01*
X174928571Y-89536711D01*
X175023809Y-89631949D01*
X175214285Y-89727187D01*
X175880952Y-89727187D01*
X173500000Y-88774806D02*
X173119047Y-88774806D01*
X172928571Y-88870045D01*
X172738095Y-89060521D01*
X172642857Y-89441473D01*
X172642857Y-90108140D01*
X172738095Y-90489092D01*
X172928571Y-90679568D01*
X173119047Y-90774806D01*
X173500000Y-90774806D01*
X173690476Y-90679568D01*
X173880952Y-90489092D01*
X173976190Y-90108140D01*
X173976190Y-89441473D01*
X173880952Y-89060521D01*
X173690476Y-88870045D01*
X173500000Y-88774806D01*
X171404761Y-88774806D02*
X171023809Y-88774806D01*
X170833333Y-88870045D01*
X170642857Y-89060521D01*
X170547619Y-89441473D01*
X170547619Y-90108140D01*
X170642857Y-90489092D01*
X170833333Y-90679568D01*
X171023809Y-90774806D01*
X171404761Y-90774806D01*
X171595238Y-90679568D01*
X171785714Y-90489092D01*
X171880952Y-90108140D01*
X171880952Y-89441473D01*
X171785714Y-89060521D01*
X171595238Y-88870045D01*
X171404761Y-88774806D01*
X169976190Y-88774806D02*
X168833333Y-88774806D01*
X169404761Y-90774806D02*
X169404761Y-88774806D01*
X174804843Y-99007217D02*
X174995319Y-98911978D01*
X175281034Y-98911978D01*
X175566748Y-99007217D01*
X175757224Y-99197693D01*
X175852462Y-99388169D01*
X175947700Y-99769121D01*
X175947700Y-100054836D01*
X175852462Y-100435788D01*
X175757224Y-100626264D01*
X175566748Y-100816740D01*
X175281034Y-100911978D01*
X175090557Y-100911978D01*
X174804843Y-100816740D01*
X174709605Y-100721502D01*
X174709605Y-100054836D01*
X175090557Y-100054836D01*
X173852462Y-100911978D02*
X173852462Y-98911978D01*
X172709605Y-100911978D01*
X172709605Y-98911978D01*
X171757224Y-100911978D02*
X171757224Y-98911978D01*
X171281034Y-98911978D01*
X170995319Y-99007217D01*
X170804843Y-99197693D01*
X170709605Y-99388169D01*
X170614367Y-99769121D01*
X170614367Y-100054836D01*
X170709605Y-100435788D01*
X170804843Y-100626264D01*
X170995319Y-100816740D01*
X171281034Y-100911978D01*
X171757224Y-100911978D01*
X174738561Y-98357346D02*
X175405228Y-97404965D01*
X175881418Y-98357346D02*
X175881418Y-96357346D01*
X175119513Y-96357346D01*
X174929037Y-96452585D01*
X174833799Y-96547823D01*
X174738561Y-96738299D01*
X174738561Y-97024013D01*
X174833799Y-97214489D01*
X174929037Y-97309727D01*
X175119513Y-97404965D01*
X175881418Y-97404965D01*
X174071894Y-96357346D02*
X172738561Y-98357346D01*
X172738561Y-96357346D02*
X174071894Y-98357346D01*
X171881418Y-96833537D02*
X171881418Y-98357346D01*
X171786180Y-96928775D02*
X171786180Y-98262108D01*
X171690942Y-96928775D02*
X171690942Y-98262108D01*
X171595704Y-97024013D02*
X171595704Y-98166870D01*
X171500466Y-97024013D02*
X171500466Y-98166870D01*
X171405228Y-97119251D02*
X171405228Y-98071632D01*
X171309990Y-97119251D02*
X171309990Y-98071632D01*
X171214752Y-97214489D02*
X171214752Y-97976394D01*
X171119513Y-97309727D02*
X171119513Y-97881156D01*
X171024275Y-97309727D02*
X171024275Y-97881156D01*
X170929037Y-97404965D02*
X170929037Y-97785918D01*
X170833799Y-97404965D02*
X170833799Y-97785918D01*
X170738561Y-97595442D02*
X170643323Y-97595442D01*
X170738561Y-97500204D02*
X170738561Y-97690680D01*
X171976656Y-96833537D02*
X170548085Y-97595442D01*
X171976656Y-98357346D01*
X170452847Y-97595442D02*
X171976656Y-98452585D01*
X171976656Y-96738299D01*
X170452847Y-97595442D01*
X174786442Y-93264352D02*
X175453109Y-92311971D01*
X175929300Y-93264352D02*
X175929300Y-91264352D01*
X175167395Y-91264352D01*
X174976919Y-91359591D01*
X174881681Y-91454829D01*
X174786442Y-91645305D01*
X174786442Y-91931019D01*
X174881681Y-92121495D01*
X174976919Y-92216733D01*
X175167395Y-92311971D01*
X175929300Y-92311971D01*
X173929300Y-92216733D02*
X173262633Y-92216733D01*
X172976919Y-93264352D02*
X173929300Y-93264352D01*
X173929300Y-91264352D01*
X172976919Y-91264352D01*
X172215014Y-93169114D02*
X171929300Y-93264352D01*
X171453109Y-93264352D01*
X171262633Y-93169114D01*
X171167395Y-93073876D01*
X171072157Y-92883400D01*
X171072157Y-92692924D01*
X171167395Y-92502448D01*
X171262633Y-92407210D01*
X171453109Y-92311971D01*
X171834061Y-92216733D01*
X172024538Y-92121495D01*
X172119776Y-92026257D01*
X172215014Y-91835781D01*
X172215014Y-91645305D01*
X172119776Y-91454829D01*
X172024538Y-91359591D01*
X171834061Y-91264352D01*
X171357871Y-91264352D01*
X171072157Y-91359591D01*
X170215014Y-92216733D02*
X169548347Y-92216733D01*
X169262633Y-93264352D02*
X170215014Y-93264352D01*
X170215014Y-91264352D01*
X169262633Y-91264352D01*
X168691204Y-91264352D02*
X167548347Y-91264352D01*
X168119776Y-93264352D02*
X168119776Y-91264352D01*
X174442554Y-95672541D02*
X174442554Y-94148732D01*
X174537792Y-95577303D02*
X174537792Y-94243970D01*
X174633030Y-95577303D02*
X174633030Y-94243970D01*
X174728268Y-95482065D02*
X174728268Y-94339208D01*
X174823506Y-95482065D02*
X174823506Y-94339208D01*
X174918744Y-95386827D02*
X174918744Y-94434446D01*
X175013982Y-95386827D02*
X175013982Y-94434446D01*
X175109220Y-95291589D02*
X175109220Y-94529684D01*
X175204458Y-95196351D02*
X175204458Y-94624922D01*
X175299696Y-95196351D02*
X175299696Y-94624922D01*
X175394935Y-95101113D02*
X175394935Y-94720160D01*
X175490173Y-95101113D02*
X175490173Y-94720160D01*
X175585411Y-94910637D02*
X175680649Y-94910637D01*
X175585411Y-95005875D02*
X175585411Y-94815399D01*
X174347315Y-95672541D02*
X175775887Y-94910637D01*
X174347315Y-94148732D01*
X175871125Y-94910637D02*
X174347315Y-94053494D01*
X174347315Y-95767780D01*
X175871125Y-94910637D01*
X173680649Y-93672541D02*
X172537792Y-93672541D01*
X173109220Y-95672541D02*
X173109220Y-93672541D01*
X172061601Y-93672541D02*
X170728268Y-95672541D01*
X170728268Y-93672541D02*
X172061601Y-95672541D01*
D12*
X157164404Y-97123571D02*
X156831071Y-97123571D01*
X156688214Y-97647380D02*
X157164404Y-97647380D01*
X157164404Y-96647380D01*
X156688214Y-96647380D01*
X156307261Y-97599761D02*
X156164404Y-97647380D01*
X155926309Y-97647380D01*
X155831071Y-97599761D01*
X155783452Y-97552142D01*
X155735833Y-97456904D01*
X155735833Y-97361666D01*
X155783452Y-97266428D01*
X155831071Y-97218809D01*
X155926309Y-97171190D01*
X156116785Y-97123571D01*
X156212023Y-97075952D01*
X156259642Y-97028333D01*
X156307261Y-96933095D01*
X156307261Y-96837857D01*
X156259642Y-96742619D01*
X156212023Y-96695000D01*
X156116785Y-96647380D01*
X155878690Y-96647380D01*
X155735833Y-96695000D01*
X155307261Y-97647380D02*
X155307261Y-96647380D01*
X154926309Y-96647380D01*
X154831071Y-96695000D01*
X154783452Y-96742619D01*
X154735833Y-96837857D01*
X154735833Y-96980714D01*
X154783452Y-97075952D01*
X154831071Y-97123571D01*
X154926309Y-97171190D01*
X155307261Y-97171190D01*
X154402500Y-96647380D02*
X153783452Y-96647380D01*
X154116785Y-97028333D01*
X153973928Y-97028333D01*
X153878690Y-97075952D01*
X153831071Y-97123571D01*
X153783452Y-97218809D01*
X153783452Y-97456904D01*
X153831071Y-97552142D01*
X153878690Y-97599761D01*
X153973928Y-97647380D01*
X154259642Y-97647380D01*
X154354880Y-97599761D01*
X154402500Y-97552142D01*
X153402500Y-96742619D02*
X153354880Y-96695000D01*
X153259642Y-96647380D01*
X153021547Y-96647380D01*
X152926309Y-96695000D01*
X152878690Y-96742619D01*
X152831071Y-96837857D01*
X152831071Y-96933095D01*
X152878690Y-97075952D01*
X153450119Y-97647380D01*
X152831071Y-97647380D01*
X151640595Y-97647380D02*
X151640595Y-96647380D01*
X151259642Y-96647380D01*
X151164404Y-96695000D01*
X151116785Y-96742619D01*
X151069166Y-96837857D01*
X151069166Y-96980714D01*
X151116785Y-97075952D01*
X151164404Y-97123571D01*
X151259642Y-97171190D01*
X151640595Y-97171190D01*
X150640595Y-97647380D02*
X150640595Y-96980714D01*
X150640595Y-97171190D02*
X150592976Y-97075952D01*
X150545357Y-97028333D01*
X150450119Y-96980714D01*
X150354880Y-96980714D01*
X149878690Y-97647380D02*
X149973928Y-97599761D01*
X150021547Y-97552142D01*
X150069166Y-97456904D01*
X150069166Y-97171190D01*
X150021547Y-97075952D01*
X149973928Y-97028333D01*
X149878690Y-96980714D01*
X149735833Y-96980714D01*
X149640595Y-97028333D01*
X149592976Y-97075952D01*
X149545357Y-97171190D01*
X149545357Y-97456904D01*
X149592976Y-97552142D01*
X149640595Y-97599761D01*
X149735833Y-97647380D01*
X149878690Y-97647380D01*
X148688214Y-96980714D02*
X148688214Y-97790238D01*
X148735833Y-97885476D01*
X148783452Y-97933095D01*
X148878690Y-97980714D01*
X149021547Y-97980714D01*
X149116785Y-97933095D01*
X148688214Y-97599761D02*
X148783452Y-97647380D01*
X148973928Y-97647380D01*
X149069166Y-97599761D01*
X149116785Y-97552142D01*
X149164404Y-97456904D01*
X149164404Y-97171190D01*
X149116785Y-97075952D01*
X149069166Y-97028333D01*
X148973928Y-96980714D01*
X148783452Y-96980714D01*
X148688214Y-97028333D01*
X148212023Y-97647380D02*
X148212023Y-96980714D01*
X148212023Y-97171190D02*
X148164404Y-97075952D01*
X148116785Y-97028333D01*
X148021547Y-96980714D01*
X147926309Y-96980714D01*
X147164404Y-97647380D02*
X147164404Y-97123571D01*
X147212023Y-97028333D01*
X147307261Y-96980714D01*
X147497738Y-96980714D01*
X147592976Y-97028333D01*
X147164404Y-97599761D02*
X147259642Y-97647380D01*
X147497738Y-97647380D01*
X147592976Y-97599761D01*
X147640595Y-97504523D01*
X147640595Y-97409285D01*
X147592976Y-97314047D01*
X147497738Y-97266428D01*
X147259642Y-97266428D01*
X147164404Y-97218809D01*
X146688214Y-97647380D02*
X146688214Y-96980714D01*
X146688214Y-97075952D02*
X146640595Y-97028333D01*
X146545357Y-96980714D01*
X146402500Y-96980714D01*
X146307261Y-97028333D01*
X146259642Y-97123571D01*
X146259642Y-97647380D01*
X146259642Y-97123571D02*
X146212023Y-97028333D01*
X146116785Y-96980714D01*
X145973928Y-96980714D01*
X145878690Y-97028333D01*
X145831071Y-97123571D01*
X145831071Y-97647380D01*
X145354880Y-97647380D02*
X145354880Y-96980714D01*
X145354880Y-97075952D02*
X145307261Y-97028333D01*
X145212023Y-96980714D01*
X145069166Y-96980714D01*
X144973928Y-97028333D01*
X144926309Y-97123571D01*
X144926309Y-97647380D01*
X144926309Y-97123571D02*
X144878690Y-97028333D01*
X144783452Y-96980714D01*
X144640595Y-96980714D01*
X144545357Y-97028333D01*
X144497738Y-97123571D01*
X144497738Y-97647380D01*
X143640595Y-97599761D02*
X143735833Y-97647380D01*
X143926309Y-97647380D01*
X144021547Y-97599761D01*
X144069166Y-97504523D01*
X144069166Y-97123571D01*
X144021547Y-97028333D01*
X143926309Y-96980714D01*
X143735833Y-96980714D01*
X143640595Y-97028333D01*
X143592976Y-97123571D01*
X143592976Y-97218809D01*
X144069166Y-97314047D01*
X143164404Y-97647380D02*
X143164404Y-96980714D01*
X143164404Y-97171190D02*
X143116785Y-97075952D01*
X143069166Y-97028333D01*
X142973928Y-96980714D01*
X142878690Y-96980714D01*
X157307261Y-98257380D02*
X156973928Y-99257380D01*
X156640595Y-98257380D01*
X156116785Y-98257380D02*
X156021547Y-98257380D01*
X155926309Y-98305000D01*
X155878690Y-98352619D01*
X155831071Y-98447857D01*
X155783452Y-98638333D01*
X155783452Y-98876428D01*
X155831071Y-99066904D01*
X155878690Y-99162142D01*
X155926309Y-99209761D01*
X156021547Y-99257380D01*
X156116785Y-99257380D01*
X156212023Y-99209761D01*
X156259642Y-99162142D01*
X156307261Y-99066904D01*
X156354880Y-98876428D01*
X156354880Y-98638333D01*
X156307261Y-98447857D01*
X156259642Y-98352619D01*
X156212023Y-98305000D01*
X156116785Y-98257380D01*
X155354880Y-99162142D02*
X155307261Y-99209761D01*
X155354880Y-99257380D01*
X155402500Y-99209761D01*
X155354880Y-99162142D01*
X155354880Y-99257380D01*
X154354880Y-99257380D02*
X154926309Y-99257380D01*
X154640595Y-99257380D02*
X154640595Y-98257380D01*
X154735833Y-98400238D01*
X154831071Y-98495476D01*
X154926309Y-98543095D01*
M02*
