G04 #@! TF.GenerationSoftware,KiCad,Pcbnew,6.0.6-3a73a75311~116~ubuntu22.04.1*
G04 #@! TF.CreationDate,2022-06-27T15:48:28+01:00*
G04 #@! TF.ProjectId,CH340G_Programmer,43483334-3047-45f5-9072-6f6772616d6d,rev?*
G04 #@! TF.SameCoordinates,Original*
G04 #@! TF.FileFunction,Legend,Bot*
G04 #@! TF.FilePolarity,Positive*
%FSLAX46Y46*%
G04 Gerber Fmt 4.6, Leading zero omitted, Abs format (unit mm)*
G04 Created by KiCad (PCBNEW 6.0.6-3a73a75311~116~ubuntu22.04.1) date 2022-06-27 15:48:28*
%MOMM*%
%LPD*%
G01*
G04 APERTURE LIST*
%ADD10C,0.378363*%
%ADD11C,0.200000*%
%ADD12C,0.150000*%
G04 APERTURE END LIST*
D10*
G36*
X161006790Y-94320279D02*
G01*
X160276394Y-95952317D01*
X162423545Y-98994666D01*
X157643475Y-95955404D01*
X158373872Y-94323367D01*
X156226720Y-91281017D01*
X161006790Y-94320279D01*
G37*
X161006790Y-94320279D02*
X160276394Y-95952317D01*
X162423545Y-98994666D01*
X157643475Y-95955404D01*
X158373872Y-94323367D01*
X156226720Y-91281017D01*
X161006790Y-94320279D01*
D11*
X172892996Y-101629326D02*
X171654901Y-101629326D01*
X172321567Y-102391231D01*
X172035853Y-102391231D01*
X171845377Y-102486469D01*
X171750139Y-102581707D01*
X171654901Y-102772184D01*
X171654901Y-103248374D01*
X171750139Y-103438850D01*
X171845377Y-103534088D01*
X172035853Y-103629326D01*
X172607282Y-103629326D01*
X172797758Y-103534088D01*
X172892996Y-103438850D01*
X171083472Y-101629326D02*
X170416806Y-103629326D01*
X169750139Y-101629326D01*
X169273948Y-101629326D02*
X168035853Y-101629326D01*
X168702520Y-102391231D01*
X168416806Y-102391231D01*
X168226329Y-102486469D01*
X168131091Y-102581707D01*
X168035853Y-102772184D01*
X168035853Y-103248374D01*
X168131091Y-103438850D01*
X168226329Y-103534088D01*
X168416806Y-103629326D01*
X168988234Y-103629326D01*
X169178710Y-103534088D01*
X169273948Y-103438850D01*
X157047619Y-94571428D02*
X156571428Y-95904761D01*
X156095238Y-94571428D01*
X154095238Y-94952380D02*
X154190476Y-94857142D01*
X154380952Y-94761904D01*
X154571428Y-94761904D01*
X154761904Y-94857142D01*
X154857142Y-94952380D01*
X154952380Y-95142857D01*
X154952380Y-95333333D01*
X154857142Y-95523809D01*
X154761904Y-95619047D01*
X154571428Y-95714285D01*
X154380952Y-95714285D01*
X154190476Y-95619047D01*
X154095238Y-95523809D01*
X154095238Y-94761904D02*
X154095238Y-95523809D01*
X154000000Y-95619047D01*
X153904761Y-95619047D01*
X153714285Y-95523809D01*
X153619047Y-95333333D01*
X153619047Y-94857142D01*
X153809523Y-94571428D01*
X154095238Y-94380952D01*
X154476190Y-94285714D01*
X154857142Y-94380952D01*
X155142857Y-94571428D01*
X155333333Y-94857142D01*
X155428571Y-95238095D01*
X155333333Y-95619047D01*
X155142857Y-95904761D01*
X154857142Y-96095238D01*
X154476190Y-96190476D01*
X154095238Y-96095238D01*
X153809523Y-95904761D01*
X152761904Y-94571428D02*
X152761904Y-95904761D01*
X152761904Y-94761904D02*
X152666666Y-94666666D01*
X152476190Y-94571428D01*
X152190476Y-94571428D01*
X152000000Y-94666666D01*
X151904761Y-94857142D01*
X151904761Y-95904761D01*
X150095238Y-95809523D02*
X150285714Y-95904761D01*
X150666666Y-95904761D01*
X150857142Y-95809523D01*
X150952380Y-95714285D01*
X151047619Y-95523809D01*
X151047619Y-94952380D01*
X150952380Y-94761904D01*
X150857142Y-94666666D01*
X150666666Y-94571428D01*
X150285714Y-94571428D01*
X150095238Y-94666666D01*
X148476190Y-95809523D02*
X148666666Y-95904761D01*
X149047619Y-95904761D01*
X149238095Y-95809523D01*
X149333333Y-95619047D01*
X149333333Y-94857142D01*
X149238095Y-94666666D01*
X149047619Y-94571428D01*
X148666666Y-94571428D01*
X148476190Y-94666666D01*
X148380952Y-94857142D01*
X148380952Y-95047619D01*
X149333333Y-95238095D01*
X147523809Y-95714285D02*
X147428571Y-95809523D01*
X147523809Y-95904761D01*
X147619047Y-95809523D01*
X147523809Y-95714285D01*
X147523809Y-95904761D01*
X146571428Y-95904761D02*
X146571428Y-94571428D01*
X146571428Y-94761904D02*
X146476190Y-94666666D01*
X146285714Y-94571428D01*
X146000000Y-94571428D01*
X145809523Y-94666666D01*
X145714285Y-94857142D01*
X145714285Y-95904761D01*
X145714285Y-94857142D02*
X145619047Y-94666666D01*
X145428571Y-94571428D01*
X145142857Y-94571428D01*
X144952380Y-94666666D01*
X144857142Y-94857142D01*
X144857142Y-95904761D01*
X143142857Y-95809523D02*
X143333333Y-95904761D01*
X143714285Y-95904761D01*
X143904761Y-95809523D01*
X144000000Y-95619047D01*
X144000000Y-94857142D01*
X143904761Y-94666666D01*
X143714285Y-94571428D01*
X143333333Y-94571428D01*
X143142857Y-94666666D01*
X143047619Y-94857142D01*
X143047619Y-95047619D01*
X144000000Y-95238095D01*
X172284971Y-89727187D02*
X171999257Y-89822425D01*
X171904019Y-89917664D01*
X171808781Y-90108140D01*
X171808781Y-90393854D01*
X171904019Y-90584330D01*
X171999257Y-90679568D01*
X172189733Y-90774806D01*
X172951638Y-90774806D01*
X172951638Y-88774806D01*
X172284971Y-88774806D01*
X172094495Y-88870045D01*
X171999257Y-88965283D01*
X171904019Y-89155759D01*
X171904019Y-89346235D01*
X171999257Y-89536711D01*
X172094495Y-89631949D01*
X172284971Y-89727187D01*
X172951638Y-89727187D01*
X170570686Y-88774806D02*
X170189733Y-88774806D01*
X169999257Y-88870045D01*
X169808781Y-89060521D01*
X169713543Y-89441473D01*
X169713543Y-90108140D01*
X169808781Y-90489092D01*
X169999257Y-90679568D01*
X170189733Y-90774806D01*
X170570686Y-90774806D01*
X170761162Y-90679568D01*
X170951638Y-90489092D01*
X171046876Y-90108140D01*
X171046876Y-89441473D01*
X170951638Y-89060521D01*
X170761162Y-88870045D01*
X170570686Y-88774806D01*
X168475447Y-88774806D02*
X168094495Y-88774806D01*
X167904019Y-88870045D01*
X167713543Y-89060521D01*
X167618305Y-89441473D01*
X167618305Y-90108140D01*
X167713543Y-90489092D01*
X167904019Y-90679568D01*
X168094495Y-90774806D01*
X168475447Y-90774806D01*
X168665924Y-90679568D01*
X168856400Y-90489092D01*
X168951638Y-90108140D01*
X168951638Y-89441473D01*
X168856400Y-89060521D01*
X168665924Y-88870045D01*
X168475447Y-88774806D01*
X167046876Y-88774806D02*
X165904019Y-88774806D01*
X166475447Y-90774806D02*
X166475447Y-88774806D01*
X171875529Y-99007217D02*
X172066005Y-98911978D01*
X172351720Y-98911978D01*
X172637434Y-99007217D01*
X172827910Y-99197693D01*
X172923148Y-99388169D01*
X173018386Y-99769121D01*
X173018386Y-100054836D01*
X172923148Y-100435788D01*
X172827910Y-100626264D01*
X172637434Y-100816740D01*
X172351720Y-100911978D01*
X172161243Y-100911978D01*
X171875529Y-100816740D01*
X171780291Y-100721502D01*
X171780291Y-100054836D01*
X172161243Y-100054836D01*
X170923148Y-100911978D02*
X170923148Y-98911978D01*
X169780291Y-100911978D01*
X169780291Y-98911978D01*
X168827910Y-100911978D02*
X168827910Y-98911978D01*
X168351720Y-98911978D01*
X168066005Y-99007217D01*
X167875529Y-99197693D01*
X167780291Y-99388169D01*
X167685053Y-99769121D01*
X167685053Y-100054836D01*
X167780291Y-100435788D01*
X167875529Y-100626264D01*
X168066005Y-100816740D01*
X168351720Y-100911978D01*
X168827910Y-100911978D01*
X171809247Y-98357346D02*
X172475914Y-97404965D01*
X172952104Y-98357346D02*
X172952104Y-96357346D01*
X172190199Y-96357346D01*
X171999723Y-96452585D01*
X171904485Y-96547823D01*
X171809247Y-96738299D01*
X171809247Y-97024013D01*
X171904485Y-97214489D01*
X171999723Y-97309727D01*
X172190199Y-97404965D01*
X172952104Y-97404965D01*
X171142580Y-96357346D02*
X169809247Y-98357346D01*
X169809247Y-96357346D02*
X171142580Y-98357346D01*
X168952104Y-96833537D02*
X168952104Y-98357346D01*
X168856866Y-96928775D02*
X168856866Y-98262108D01*
X168761628Y-96928775D02*
X168761628Y-98262108D01*
X168666390Y-97024013D02*
X168666390Y-98166870D01*
X168571152Y-97024013D02*
X168571152Y-98166870D01*
X168475914Y-97119251D02*
X168475914Y-98071632D01*
X168380676Y-97119251D02*
X168380676Y-98071632D01*
X168285438Y-97214489D02*
X168285438Y-97976394D01*
X168190199Y-97309727D02*
X168190199Y-97881156D01*
X168094961Y-97309727D02*
X168094961Y-97881156D01*
X167999723Y-97404965D02*
X167999723Y-97785918D01*
X167904485Y-97404965D02*
X167904485Y-97785918D01*
X167809247Y-97595442D02*
X167714009Y-97595442D01*
X167809247Y-97500204D02*
X167809247Y-97690680D01*
X169047342Y-96833537D02*
X167618771Y-97595442D01*
X169047342Y-98357346D01*
X167523533Y-97595442D02*
X169047342Y-98452585D01*
X169047342Y-96738299D01*
X167523533Y-97595442D01*
X171857128Y-93264352D02*
X172523795Y-92311971D01*
X172999986Y-93264352D02*
X172999986Y-91264352D01*
X172238081Y-91264352D01*
X172047605Y-91359591D01*
X171952367Y-91454829D01*
X171857128Y-91645305D01*
X171857128Y-91931019D01*
X171952367Y-92121495D01*
X172047605Y-92216733D01*
X172238081Y-92311971D01*
X172999986Y-92311971D01*
X170999986Y-92216733D02*
X170333319Y-92216733D01*
X170047605Y-93264352D02*
X170999986Y-93264352D01*
X170999986Y-91264352D01*
X170047605Y-91264352D01*
X169285700Y-93169114D02*
X168999986Y-93264352D01*
X168523795Y-93264352D01*
X168333319Y-93169114D01*
X168238081Y-93073876D01*
X168142843Y-92883400D01*
X168142843Y-92692924D01*
X168238081Y-92502448D01*
X168333319Y-92407210D01*
X168523795Y-92311971D01*
X168904747Y-92216733D01*
X169095224Y-92121495D01*
X169190462Y-92026257D01*
X169285700Y-91835781D01*
X169285700Y-91645305D01*
X169190462Y-91454829D01*
X169095224Y-91359591D01*
X168904747Y-91264352D01*
X168428557Y-91264352D01*
X168142843Y-91359591D01*
X167285700Y-92216733D02*
X166619033Y-92216733D01*
X166333319Y-93264352D02*
X167285700Y-93264352D01*
X167285700Y-91264352D01*
X166333319Y-91264352D01*
X165761890Y-91264352D02*
X164619033Y-91264352D01*
X165190462Y-93264352D02*
X165190462Y-91264352D01*
X171513240Y-95672541D02*
X171513240Y-94148732D01*
X171608478Y-95577303D02*
X171608478Y-94243970D01*
X171703716Y-95577303D02*
X171703716Y-94243970D01*
X171798954Y-95482065D02*
X171798954Y-94339208D01*
X171894192Y-95482065D02*
X171894192Y-94339208D01*
X171989430Y-95386827D02*
X171989430Y-94434446D01*
X172084668Y-95386827D02*
X172084668Y-94434446D01*
X172179906Y-95291589D02*
X172179906Y-94529684D01*
X172275144Y-95196351D02*
X172275144Y-94624922D01*
X172370382Y-95196351D02*
X172370382Y-94624922D01*
X172465621Y-95101113D02*
X172465621Y-94720160D01*
X172560859Y-95101113D02*
X172560859Y-94720160D01*
X172656097Y-94910637D02*
X172751335Y-94910637D01*
X172656097Y-95005875D02*
X172656097Y-94815399D01*
X171418001Y-95672541D02*
X172846573Y-94910637D01*
X171418001Y-94148732D01*
X172941811Y-94910637D02*
X171418001Y-94053494D01*
X171418001Y-95767780D01*
X172941811Y-94910637D01*
X170751335Y-93672541D02*
X169608478Y-93672541D01*
X170179906Y-95672541D02*
X170179906Y-93672541D01*
X169132287Y-93672541D02*
X167798954Y-95672541D01*
X167798954Y-93672541D02*
X169132287Y-95672541D01*
D12*
X157164404Y-97123571D02*
X156831071Y-97123571D01*
X156688214Y-97647380D02*
X157164404Y-97647380D01*
X157164404Y-96647380D01*
X156688214Y-96647380D01*
X156307261Y-97599761D02*
X156164404Y-97647380D01*
X155926309Y-97647380D01*
X155831071Y-97599761D01*
X155783452Y-97552142D01*
X155735833Y-97456904D01*
X155735833Y-97361666D01*
X155783452Y-97266428D01*
X155831071Y-97218809D01*
X155926309Y-97171190D01*
X156116785Y-97123571D01*
X156212023Y-97075952D01*
X156259642Y-97028333D01*
X156307261Y-96933095D01*
X156307261Y-96837857D01*
X156259642Y-96742619D01*
X156212023Y-96695000D01*
X156116785Y-96647380D01*
X155878690Y-96647380D01*
X155735833Y-96695000D01*
X155307261Y-97647380D02*
X155307261Y-96647380D01*
X154926309Y-96647380D01*
X154831071Y-96695000D01*
X154783452Y-96742619D01*
X154735833Y-96837857D01*
X154735833Y-96980714D01*
X154783452Y-97075952D01*
X154831071Y-97123571D01*
X154926309Y-97171190D01*
X155307261Y-97171190D01*
X154402500Y-96647380D02*
X153783452Y-96647380D01*
X154116785Y-97028333D01*
X153973928Y-97028333D01*
X153878690Y-97075952D01*
X153831071Y-97123571D01*
X153783452Y-97218809D01*
X153783452Y-97456904D01*
X153831071Y-97552142D01*
X153878690Y-97599761D01*
X153973928Y-97647380D01*
X154259642Y-97647380D01*
X154354880Y-97599761D01*
X154402500Y-97552142D01*
X153402500Y-96742619D02*
X153354880Y-96695000D01*
X153259642Y-96647380D01*
X153021547Y-96647380D01*
X152926309Y-96695000D01*
X152878690Y-96742619D01*
X152831071Y-96837857D01*
X152831071Y-96933095D01*
X152878690Y-97075952D01*
X153450119Y-97647380D01*
X152831071Y-97647380D01*
X151640595Y-97647380D02*
X151640595Y-96647380D01*
X151259642Y-96647380D01*
X151164404Y-96695000D01*
X151116785Y-96742619D01*
X151069166Y-96837857D01*
X151069166Y-96980714D01*
X151116785Y-97075952D01*
X151164404Y-97123571D01*
X151259642Y-97171190D01*
X151640595Y-97171190D01*
X150640595Y-97647380D02*
X150640595Y-96980714D01*
X150640595Y-97171190D02*
X150592976Y-97075952D01*
X150545357Y-97028333D01*
X150450119Y-96980714D01*
X150354880Y-96980714D01*
X149878690Y-97647380D02*
X149973928Y-97599761D01*
X150021547Y-97552142D01*
X150069166Y-97456904D01*
X150069166Y-97171190D01*
X150021547Y-97075952D01*
X149973928Y-97028333D01*
X149878690Y-96980714D01*
X149735833Y-96980714D01*
X149640595Y-97028333D01*
X149592976Y-97075952D01*
X149545357Y-97171190D01*
X149545357Y-97456904D01*
X149592976Y-97552142D01*
X149640595Y-97599761D01*
X149735833Y-97647380D01*
X149878690Y-97647380D01*
X148688214Y-96980714D02*
X148688214Y-97790238D01*
X148735833Y-97885476D01*
X148783452Y-97933095D01*
X148878690Y-97980714D01*
X149021547Y-97980714D01*
X149116785Y-97933095D01*
X148688214Y-97599761D02*
X148783452Y-97647380D01*
X148973928Y-97647380D01*
X149069166Y-97599761D01*
X149116785Y-97552142D01*
X149164404Y-97456904D01*
X149164404Y-97171190D01*
X149116785Y-97075952D01*
X149069166Y-97028333D01*
X148973928Y-96980714D01*
X148783452Y-96980714D01*
X148688214Y-97028333D01*
X148212023Y-97647380D02*
X148212023Y-96980714D01*
X148212023Y-97171190D02*
X148164404Y-97075952D01*
X148116785Y-97028333D01*
X148021547Y-96980714D01*
X147926309Y-96980714D01*
X147164404Y-97647380D02*
X147164404Y-97123571D01*
X147212023Y-97028333D01*
X147307261Y-96980714D01*
X147497738Y-96980714D01*
X147592976Y-97028333D01*
X147164404Y-97599761D02*
X147259642Y-97647380D01*
X147497738Y-97647380D01*
X147592976Y-97599761D01*
X147640595Y-97504523D01*
X147640595Y-97409285D01*
X147592976Y-97314047D01*
X147497738Y-97266428D01*
X147259642Y-97266428D01*
X147164404Y-97218809D01*
X146688214Y-97647380D02*
X146688214Y-96980714D01*
X146688214Y-97075952D02*
X146640595Y-97028333D01*
X146545357Y-96980714D01*
X146402500Y-96980714D01*
X146307261Y-97028333D01*
X146259642Y-97123571D01*
X146259642Y-97647380D01*
X146259642Y-97123571D02*
X146212023Y-97028333D01*
X146116785Y-96980714D01*
X145973928Y-96980714D01*
X145878690Y-97028333D01*
X145831071Y-97123571D01*
X145831071Y-97647380D01*
X145354880Y-97647380D02*
X145354880Y-96980714D01*
X145354880Y-97075952D02*
X145307261Y-97028333D01*
X145212023Y-96980714D01*
X145069166Y-96980714D01*
X144973928Y-97028333D01*
X144926309Y-97123571D01*
X144926309Y-97647380D01*
X144926309Y-97123571D02*
X144878690Y-97028333D01*
X144783452Y-96980714D01*
X144640595Y-96980714D01*
X144545357Y-97028333D01*
X144497738Y-97123571D01*
X144497738Y-97647380D01*
X143640595Y-97599761D02*
X143735833Y-97647380D01*
X143926309Y-97647380D01*
X144021547Y-97599761D01*
X144069166Y-97504523D01*
X144069166Y-97123571D01*
X144021547Y-97028333D01*
X143926309Y-96980714D01*
X143735833Y-96980714D01*
X143640595Y-97028333D01*
X143592976Y-97123571D01*
X143592976Y-97218809D01*
X144069166Y-97314047D01*
X143164404Y-97647380D02*
X143164404Y-96980714D01*
X143164404Y-97171190D02*
X143116785Y-97075952D01*
X143069166Y-97028333D01*
X142973928Y-96980714D01*
X142878690Y-96980714D01*
X157307261Y-98257380D02*
X156973928Y-99257380D01*
X156640595Y-98257380D01*
X156116785Y-98257380D02*
X156021547Y-98257380D01*
X155926309Y-98305000D01*
X155878690Y-98352619D01*
X155831071Y-98447857D01*
X155783452Y-98638333D01*
X155783452Y-98876428D01*
X155831071Y-99066904D01*
X155878690Y-99162142D01*
X155926309Y-99209761D01*
X156021547Y-99257380D01*
X156116785Y-99257380D01*
X156212023Y-99209761D01*
X156259642Y-99162142D01*
X156307261Y-99066904D01*
X156354880Y-98876428D01*
X156354880Y-98638333D01*
X156307261Y-98447857D01*
X156259642Y-98352619D01*
X156212023Y-98305000D01*
X156116785Y-98257380D01*
X155354880Y-99162142D02*
X155307261Y-99209761D01*
X155354880Y-99257380D01*
X155402500Y-99209761D01*
X155354880Y-99162142D01*
X155354880Y-99257380D01*
X154354880Y-99257380D02*
X154926309Y-99257380D01*
X154640595Y-99257380D02*
X154640595Y-98257380D01*
X154735833Y-98400238D01*
X154831071Y-98495476D01*
X154926309Y-98543095D01*
M02*
