G04 #@! TF.GenerationSoftware,KiCad,Pcbnew,6.0.6-3a73a75311~116~ubuntu22.04.1*
G04 #@! TF.CreationDate,2022-07-02T17:15:35+01:00*
G04 #@! TF.ProjectId,CH340G_Programmer,43483334-3047-45f5-9072-6f6772616d6d,rev?*
G04 #@! TF.SameCoordinates,Original*
G04 #@! TF.FileFunction,Legend,Top*
G04 #@! TF.FilePolarity,Positive*
%FSLAX46Y46*%
G04 Gerber Fmt 4.6, Leading zero omitted, Abs format (unit mm)*
G04 Created by KiCad (PCBNEW 6.0.6-3a73a75311~116~ubuntu22.04.1) date 2022-07-02 17:15:35*
%MOMM*%
%LPD*%
G01*
G04 APERTURE LIST*
%ADD10C,0.300000*%
%ADD11C,0.150000*%
%ADD12C,0.120000*%
G04 APERTURE END LIST*
D10*
X169901832Y-95413596D02*
X171044689Y-95413596D01*
X170473261Y-97413596D02*
X170473261Y-95413596D01*
X171520880Y-95413596D02*
X172854213Y-97413596D01*
X172854213Y-95413596D02*
X171520880Y-97413596D01*
X175904761Y-99500000D02*
X174380952Y-99500000D01*
X175809523Y-99595238D02*
X174476190Y-99595238D01*
X175809523Y-99690476D02*
X174476190Y-99690476D01*
X175714285Y-99785714D02*
X174571428Y-99785714D01*
X175714285Y-99880952D02*
X174571428Y-99880952D01*
X175619047Y-99976190D02*
X174666666Y-99976190D01*
X175619047Y-100071428D02*
X174666666Y-100071428D01*
X175523809Y-100166666D02*
X174761904Y-100166666D01*
X175428571Y-100261904D02*
X174857142Y-100261904D01*
X175428571Y-100357142D02*
X174857142Y-100357142D01*
X175333333Y-100452380D02*
X174952380Y-100452380D01*
X175333333Y-100547619D02*
X174952380Y-100547619D01*
X175142857Y-100642857D02*
X175142857Y-100738095D01*
X175238095Y-100642857D02*
X175047619Y-100642857D01*
X175904761Y-99404761D02*
X175142857Y-100833333D01*
X174380952Y-99404761D01*
X175142857Y-100928571D02*
X174285714Y-99404761D01*
X176000000Y-99404761D01*
X175142857Y-100928571D01*
X175904761Y-98452380D02*
X173904761Y-98452380D01*
X173904761Y-97690476D01*
X174000000Y-97500000D01*
X174095238Y-97404761D01*
X174285714Y-97309523D01*
X174571428Y-97309523D01*
X174761904Y-97404761D01*
X174857142Y-97500000D01*
X174952380Y-97690476D01*
X174952380Y-98452380D01*
X173904761Y-96642857D02*
X175904761Y-96166666D01*
X174476190Y-95785714D01*
X175904761Y-95404761D01*
X173904761Y-94928571D01*
X175904761Y-93023809D02*
X174952380Y-93690476D01*
X175904761Y-94166666D02*
X173904761Y-94166666D01*
X173904761Y-93404761D01*
X174000000Y-93214285D01*
X174095238Y-93119047D01*
X174285714Y-93023809D01*
X174571428Y-93023809D01*
X174761904Y-93119047D01*
X174857142Y-93214285D01*
X174952380Y-93404761D01*
X174952380Y-94166666D01*
X173904761Y-92452380D02*
X173904761Y-91309523D01*
X175904761Y-91880952D02*
X173904761Y-91880952D01*
X174000000Y-89595238D02*
X173904761Y-89785714D01*
X173904761Y-90071428D01*
X174000000Y-90357142D01*
X174190476Y-90547619D01*
X174380952Y-90642857D01*
X174761904Y-90738095D01*
X175047619Y-90738095D01*
X175428571Y-90642857D01*
X175619047Y-90547619D01*
X175809523Y-90357142D01*
X175904761Y-90071428D01*
X175904761Y-89880952D01*
X175809523Y-89595238D01*
X175714285Y-89500000D01*
X175047619Y-89500000D01*
X175047619Y-89880952D01*
X173904761Y-88928571D02*
X173904761Y-87785714D01*
X175904761Y-88357142D02*
X173904761Y-88357142D01*
X171010950Y-100277388D02*
X170344284Y-99325007D01*
X169868093Y-100277388D02*
X169868093Y-98277388D01*
X170629998Y-98277388D01*
X170820474Y-98372627D01*
X170915712Y-98467865D01*
X171010950Y-98658341D01*
X171010950Y-98944055D01*
X170915712Y-99134531D01*
X170820474Y-99229769D01*
X170629998Y-99325007D01*
X169868093Y-99325007D01*
X171677617Y-98277388D02*
X173010950Y-100277388D01*
X173010950Y-98277388D02*
X171677617Y-100277388D01*
D11*
G04 #@! TO.C,J1*
X142452380Y-96333333D02*
X143166666Y-96333333D01*
X143309523Y-96380952D01*
X143404761Y-96476190D01*
X143452380Y-96619047D01*
X143452380Y-96714285D01*
X143452380Y-95333333D02*
X143452380Y-95904761D01*
X143452380Y-95619047D02*
X142452380Y-95619047D01*
X142595238Y-95714285D01*
X142690476Y-95809523D01*
X142738095Y-95904761D01*
G04 #@! TO.C,U2*
X161738095Y-93952380D02*
X161738095Y-94761904D01*
X161785714Y-94857142D01*
X161833333Y-94904761D01*
X161928571Y-94952380D01*
X162119047Y-94952380D01*
X162214285Y-94904761D01*
X162261904Y-94857142D01*
X162309523Y-94761904D01*
X162309523Y-93952380D01*
X162738095Y-94047619D02*
X162785714Y-94000000D01*
X162880952Y-93952380D01*
X163119047Y-93952380D01*
X163214285Y-94000000D01*
X163261904Y-94047619D01*
X163309523Y-94142857D01*
X163309523Y-94238095D01*
X163261904Y-94380952D01*
X162690476Y-94952380D01*
X163309523Y-94952380D01*
G04 #@! TO.C,Y1*
X162023809Y-98476190D02*
X162023809Y-98952380D01*
X161690476Y-97952380D02*
X162023809Y-98476190D01*
X162357142Y-97952380D01*
X163214285Y-98952380D02*
X162642857Y-98952380D01*
X162928571Y-98952380D02*
X162928571Y-97952380D01*
X162833333Y-98095238D01*
X162738095Y-98190476D01*
X162642857Y-98238095D01*
G04 #@! TO.C,U1*
X155738095Y-93452380D02*
X155738095Y-94261904D01*
X155785714Y-94357142D01*
X155833333Y-94404761D01*
X155928571Y-94452380D01*
X156119047Y-94452380D01*
X156214285Y-94404761D01*
X156261904Y-94357142D01*
X156309523Y-94261904D01*
X156309523Y-93452380D01*
X157309523Y-94452380D02*
X156738095Y-94452380D01*
X157023809Y-94452380D02*
X157023809Y-93452380D01*
X156928571Y-93595238D01*
X156833333Y-93690476D01*
X156738095Y-93738095D01*
D12*
G04 #@! TO.C,D2*
X169485000Y-99235000D02*
X169485000Y-97765000D01*
X167200000Y-99235000D02*
X169485000Y-99235000D01*
X169485000Y-97765000D02*
X167200000Y-97765000D01*
G04 #@! TO.C,D4*
X150735000Y-98485000D02*
X150735000Y-96200000D01*
X149265000Y-96200000D02*
X149265000Y-98485000D01*
X149265000Y-98485000D02*
X150735000Y-98485000D01*
G04 #@! TO.C,R6*
X149477500Y-93762742D02*
X149477500Y-94237258D01*
X150522500Y-93762742D02*
X150522500Y-94237258D01*
G04 #@! TO.C,U2*
X162500000Y-99560000D02*
X164450000Y-99560000D01*
X162500000Y-89440000D02*
X164450000Y-89440000D01*
X162500000Y-89440000D02*
X159050000Y-89440000D01*
X162500000Y-99560000D02*
X160550000Y-99560000D01*
G04 #@! TO.C,R3*
X167762742Y-102477500D02*
X168237258Y-102477500D01*
X167762742Y-103522500D02*
X168237258Y-103522500D01*
G04 #@! TO.C,J2*
X179805000Y-101310000D02*
X179805000Y-88550000D01*
X179805000Y-88550000D02*
X177145000Y-88550000D01*
X178475000Y-103910000D02*
X177145000Y-103910000D01*
X177145000Y-101310000D02*
X177145000Y-88550000D01*
X177145000Y-103910000D02*
X177145000Y-102580000D01*
X179805000Y-101310000D02*
X177145000Y-101310000D01*
G04 #@! TO.C,C2*
X149400000Y-100935000D02*
X153310000Y-100935000D01*
X153310000Y-99065000D02*
X149400000Y-99065000D01*
X153310000Y-100935000D02*
X153310000Y-99065000D01*
G04 #@! TO.C,D3*
X166515000Y-100765000D02*
X166515000Y-102235000D01*
X168800000Y-100765000D02*
X166515000Y-100765000D01*
X166515000Y-102235000D02*
X168800000Y-102235000D01*
G04 #@! TO.C,R4*
X168237258Y-97522500D02*
X167762742Y-97522500D01*
X168237258Y-96477500D02*
X167762742Y-96477500D01*
G04 #@! TO.C,Q1*
X170500000Y-94560000D02*
X171150000Y-94560000D01*
X170500000Y-91440000D02*
X168825000Y-91440000D01*
X170500000Y-94560000D02*
X169850000Y-94560000D01*
X170500000Y-91440000D02*
X171150000Y-91440000D01*
G04 #@! TO.C,C4*
X159140000Y-101607836D02*
X159140000Y-101392164D01*
X159860000Y-101607836D02*
X159860000Y-101392164D01*
G04 #@! TO.C,D1*
X167200000Y-96235000D02*
X169485000Y-96235000D01*
X169485000Y-96235000D02*
X169485000Y-94765000D01*
X169485000Y-94765000D02*
X167200000Y-94765000D01*
G04 #@! TO.C,Y1*
X164500000Y-99850000D02*
X160500000Y-99850000D01*
X164500000Y-103150000D02*
X164500000Y-99850000D01*
G04 #@! TO.C,R5*
X168237258Y-100522500D02*
X167762742Y-100522500D01*
X168237258Y-99477500D02*
X167762742Y-99477500D01*
G04 #@! TO.C,R1*
X166977500Y-92762742D02*
X166977500Y-93237258D01*
X168022500Y-92762742D02*
X168022500Y-93237258D01*
G04 #@! TO.C,C3*
X165140000Y-101392164D02*
X165140000Y-101607836D01*
X165860000Y-101392164D02*
X165860000Y-101607836D01*
G04 #@! TO.C,R2*
X168022500Y-89737258D02*
X168022500Y-89262742D01*
X166977500Y-89737258D02*
X166977500Y-89262742D01*
G04 #@! TO.C,JP1*
X170395000Y-103830000D02*
X170395000Y-102500000D01*
X172995000Y-103830000D02*
X175595000Y-103830000D01*
X171725000Y-103830000D02*
X170395000Y-103830000D01*
X175595000Y-103830000D02*
X175595000Y-101170000D01*
X172995000Y-101170000D02*
X175595000Y-101170000D01*
X172995000Y-103830000D02*
X172995000Y-101170000D01*
G04 #@! TO.C,C1*
X157600000Y-99065000D02*
X153690000Y-99065000D01*
X153690000Y-100935000D02*
X157600000Y-100935000D01*
X153690000Y-99065000D02*
X153690000Y-100935000D01*
G04 #@! TO.C,Q2*
X170500000Y-87940000D02*
X168825000Y-87940000D01*
X170500000Y-91060000D02*
X171150000Y-91060000D01*
X170500000Y-87940000D02*
X171150000Y-87940000D01*
X170500000Y-91060000D02*
X169850000Y-91060000D01*
G04 #@! TO.C,U1*
X157910000Y-96350000D02*
X157910000Y-92590000D01*
X151090000Y-92590000D02*
X152350000Y-92590000D01*
X151090000Y-98600000D02*
X151090000Y-92590000D01*
X157910000Y-92590000D02*
X156650000Y-92590000D01*
G04 #@! TD*
M02*
