G04 #@! TF.GenerationSoftware,KiCad,Pcbnew,6.0.6-3a73a75311~116~ubuntu22.04.1*
G04 #@! TF.CreationDate,2022-06-27T15:48:28+01:00*
G04 #@! TF.ProjectId,CH340G_Programmer,43483334-3047-45f5-9072-6f6772616d6d,rev?*
G04 #@! TF.SameCoordinates,Original*
G04 #@! TF.FileFunction,Legend,Top*
G04 #@! TF.FilePolarity,Positive*
%FSLAX46Y46*%
G04 Gerber Fmt 4.6, Leading zero omitted, Abs format (unit mm)*
G04 Created by KiCad (PCBNEW 6.0.6-3a73a75311~116~ubuntu22.04.1) date 2022-06-27 15:48:28*
%MOMM*%
%LPD*%
G01*
G04 APERTURE LIST*
%ADD10C,0.300000*%
%ADD11C,0.150000*%
%ADD12C,0.120000*%
G04 APERTURE END LIST*
D10*
X169787931Y-101336439D02*
X171026026Y-101336439D01*
X170359360Y-102098344D01*
X170645074Y-102098344D01*
X170835550Y-102193582D01*
X170930788Y-102288820D01*
X171026026Y-102479297D01*
X171026026Y-102955487D01*
X170930788Y-103145963D01*
X170835550Y-103241201D01*
X170645074Y-103336439D01*
X170073645Y-103336439D01*
X169883169Y-103241201D01*
X169787931Y-103145963D01*
X171597455Y-101336439D02*
X172264121Y-103336439D01*
X172930788Y-101336439D01*
X169901832Y-95413596D02*
X171044689Y-95413596D01*
X170473261Y-97413596D02*
X170473261Y-95413596D01*
X171520880Y-95413596D02*
X172854213Y-97413596D01*
X172854213Y-95413596D02*
X171520880Y-97413596D01*
X171010950Y-100277388D02*
X170344284Y-99325007D01*
X169868093Y-100277388D02*
X169868093Y-98277388D01*
X170629998Y-98277388D01*
X170820474Y-98372627D01*
X170915712Y-98467865D01*
X171010950Y-98658341D01*
X171010950Y-98944055D01*
X170915712Y-99134531D01*
X170820474Y-99229769D01*
X170629998Y-99325007D01*
X169868093Y-99325007D01*
X171677617Y-98277388D02*
X173010950Y-100277388D01*
X173010950Y-98277388D02*
X171677617Y-100277388D01*
D11*
G04 #@! TO.C,J1*
X142452380Y-96333333D02*
X143166666Y-96333333D01*
X143309523Y-96380952D01*
X143404761Y-96476190D01*
X143452380Y-96619047D01*
X143452380Y-96714285D01*
X143452380Y-95333333D02*
X143452380Y-95904761D01*
X143452380Y-95619047D02*
X142452380Y-95619047D01*
X142595238Y-95714285D01*
X142690476Y-95809523D01*
X142738095Y-95904761D01*
G04 #@! TO.C,U2*
X161738095Y-93952380D02*
X161738095Y-94761904D01*
X161785714Y-94857142D01*
X161833333Y-94904761D01*
X161928571Y-94952380D01*
X162119047Y-94952380D01*
X162214285Y-94904761D01*
X162261904Y-94857142D01*
X162309523Y-94761904D01*
X162309523Y-93952380D01*
X162738095Y-94047619D02*
X162785714Y-94000000D01*
X162880952Y-93952380D01*
X163119047Y-93952380D01*
X163214285Y-94000000D01*
X163261904Y-94047619D01*
X163309523Y-94142857D01*
X163309523Y-94238095D01*
X163261904Y-94380952D01*
X162690476Y-94952380D01*
X163309523Y-94952380D01*
G04 #@! TO.C,Y1*
X162023809Y-98476190D02*
X162023809Y-98952380D01*
X161690476Y-97952380D02*
X162023809Y-98476190D01*
X162357142Y-97952380D01*
X163214285Y-98952380D02*
X162642857Y-98952380D01*
X162928571Y-98952380D02*
X162928571Y-97952380D01*
X162833333Y-98095238D01*
X162738095Y-98190476D01*
X162642857Y-98238095D01*
G04 #@! TO.C,U1*
X155738095Y-93452380D02*
X155738095Y-94261904D01*
X155785714Y-94357142D01*
X155833333Y-94404761D01*
X155928571Y-94452380D01*
X156119047Y-94452380D01*
X156214285Y-94404761D01*
X156261904Y-94357142D01*
X156309523Y-94261904D01*
X156309523Y-93452380D01*
X157309523Y-94452380D02*
X156738095Y-94452380D01*
X157023809Y-94452380D02*
X157023809Y-93452380D01*
X156928571Y-93595238D01*
X156833333Y-93690476D01*
X156738095Y-93738095D01*
D12*
G04 #@! TO.C,D2*
X169485000Y-99235000D02*
X169485000Y-97765000D01*
X167200000Y-99235000D02*
X169485000Y-99235000D01*
X169485000Y-97765000D02*
X167200000Y-97765000D01*
G04 #@! TO.C,U2*
X162500000Y-99560000D02*
X164450000Y-99560000D01*
X162500000Y-89440000D02*
X159050000Y-89440000D01*
X162500000Y-99560000D02*
X160550000Y-99560000D01*
X162500000Y-89440000D02*
X164450000Y-89440000D01*
G04 #@! TO.C,R3*
X167762742Y-103522500D02*
X168237258Y-103522500D01*
X167762742Y-102477500D02*
X168237258Y-102477500D01*
G04 #@! TO.C,J2*
X176330000Y-88470000D02*
X173670000Y-88470000D01*
X173670000Y-101230000D02*
X173670000Y-88470000D01*
X175000000Y-103830000D02*
X173670000Y-103830000D01*
X176330000Y-101230000D02*
X176330000Y-88470000D01*
X176330000Y-101230000D02*
X173670000Y-101230000D01*
X173670000Y-103830000D02*
X173670000Y-102500000D01*
G04 #@! TO.C,C2*
X149400000Y-100935000D02*
X153310000Y-100935000D01*
X153310000Y-99065000D02*
X149400000Y-99065000D01*
X153310000Y-100935000D02*
X153310000Y-99065000D01*
G04 #@! TO.C,D3*
X168800000Y-100765000D02*
X166515000Y-100765000D01*
X166515000Y-102235000D02*
X168800000Y-102235000D01*
X166515000Y-100765000D02*
X166515000Y-102235000D01*
G04 #@! TO.C,R4*
X168237258Y-97522500D02*
X167762742Y-97522500D01*
X168237258Y-96477500D02*
X167762742Y-96477500D01*
G04 #@! TO.C,Q1*
X170500000Y-94560000D02*
X169850000Y-94560000D01*
X170500000Y-91440000D02*
X171150000Y-91440000D01*
X170500000Y-91440000D02*
X168825000Y-91440000D01*
X170500000Y-94560000D02*
X171150000Y-94560000D01*
G04 #@! TO.C,C4*
X159140000Y-101607836D02*
X159140000Y-101392164D01*
X159860000Y-101607836D02*
X159860000Y-101392164D01*
G04 #@! TO.C,D1*
X167200000Y-96235000D02*
X169485000Y-96235000D01*
X169485000Y-94765000D02*
X167200000Y-94765000D01*
X169485000Y-96235000D02*
X169485000Y-94765000D01*
G04 #@! TO.C,Y1*
X164500000Y-103150000D02*
X164500000Y-99850000D01*
X164500000Y-99850000D02*
X160500000Y-99850000D01*
G04 #@! TO.C,R5*
X168237258Y-100522500D02*
X167762742Y-100522500D01*
X168237258Y-99477500D02*
X167762742Y-99477500D01*
G04 #@! TO.C,R1*
X166977500Y-92762742D02*
X166977500Y-93237258D01*
X168022500Y-92762742D02*
X168022500Y-93237258D01*
G04 #@! TO.C,C3*
X165140000Y-101392164D02*
X165140000Y-101607836D01*
X165860000Y-101392164D02*
X165860000Y-101607836D01*
G04 #@! TO.C,R2*
X168022500Y-89737258D02*
X168022500Y-89262742D01*
X166977500Y-89737258D02*
X166977500Y-89262742D01*
G04 #@! TO.C,C1*
X153690000Y-99065000D02*
X153690000Y-100935000D01*
X157600000Y-99065000D02*
X153690000Y-99065000D01*
X153690000Y-100935000D02*
X157600000Y-100935000D01*
G04 #@! TO.C,Q2*
X170500000Y-91060000D02*
X171150000Y-91060000D01*
X170500000Y-87940000D02*
X168825000Y-87940000D01*
X170500000Y-91060000D02*
X169850000Y-91060000D01*
X170500000Y-87940000D02*
X171150000Y-87940000D01*
G04 #@! TO.C,U1*
X151090000Y-98600000D02*
X151090000Y-92590000D01*
X151090000Y-92590000D02*
X152350000Y-92590000D01*
X157910000Y-92590000D02*
X156650000Y-92590000D01*
X157910000Y-96350000D02*
X157910000Y-92590000D01*
G04 #@! TD*
M02*
