G04 #@! TF.GenerationSoftware,KiCad,Pcbnew,6.0.6-3a73a75311~116~ubuntu22.04.1*
G04 #@! TF.CreationDate,2022-06-27T15:48:28+01:00*
G04 #@! TF.ProjectId,CH340G_Programmer,43483334-3047-45f5-9072-6f6772616d6d,rev?*
G04 #@! TF.SameCoordinates,Original*
G04 #@! TF.FileFunction,Copper,L1,Top*
G04 #@! TF.FilePolarity,Positive*
%FSLAX46Y46*%
G04 Gerber Fmt 4.6, Leading zero omitted, Abs format (unit mm)*
G04 Created by KiCad (PCBNEW 6.0.6-3a73a75311~116~ubuntu22.04.1) date 2022-06-27 15:48:28*
%MOMM*%
%LPD*%
G01*
G04 APERTURE LIST*
G04 Aperture macros list*
%AMRoundRect*
0 Rectangle with rounded corners*
0 $1 Rounding radius*
0 $2 $3 $4 $5 $6 $7 $8 $9 X,Y pos of 4 corners*
0 Add a 4 corners polygon primitive as box body*
4,1,4,$2,$3,$4,$5,$6,$7,$8,$9,$2,$3,0*
0 Add four circle primitives for the rounded corners*
1,1,$1+$1,$2,$3*
1,1,$1+$1,$4,$5*
1,1,$1+$1,$6,$7*
1,1,$1+$1,$8,$9*
0 Add four rect primitives between the rounded corners*
20,1,$1+$1,$2,$3,$4,$5,0*
20,1,$1+$1,$4,$5,$6,$7,0*
20,1,$1+$1,$6,$7,$8,$9,0*
20,1,$1+$1,$8,$9,$2,$3,0*%
G04 Aperture macros list end*
G04 #@! TA.AperFunction,SMDPad,CuDef*
%ADD10R,1.400000X0.400000*%
G04 #@! TD*
G04 #@! TA.AperFunction,ComponentPad*
%ADD11O,1.850000X1.050000*%
G04 #@! TD*
G04 #@! TA.AperFunction,SMDPad,CuDef*
%ADD12RoundRect,0.218750X0.218750X0.256250X-0.218750X0.256250X-0.218750X-0.256250X0.218750X-0.256250X0*%
G04 #@! TD*
G04 #@! TA.AperFunction,SMDPad,CuDef*
%ADD13RoundRect,0.150000X-0.825000X-0.150000X0.825000X-0.150000X0.825000X0.150000X-0.825000X0.150000X0*%
G04 #@! TD*
G04 #@! TA.AperFunction,SMDPad,CuDef*
%ADD14RoundRect,0.200000X-0.200000X-0.275000X0.200000X-0.275000X0.200000X0.275000X-0.200000X0.275000X0*%
G04 #@! TD*
G04 #@! TA.AperFunction,ComponentPad*
%ADD15R,1.700000X1.700000*%
G04 #@! TD*
G04 #@! TA.AperFunction,ComponentPad*
%ADD16O,1.700000X1.700000*%
G04 #@! TD*
G04 #@! TA.AperFunction,SMDPad,CuDef*
%ADD17RoundRect,0.250000X0.450000X0.425000X-0.450000X0.425000X-0.450000X-0.425000X0.450000X-0.425000X0*%
G04 #@! TD*
G04 #@! TA.AperFunction,SMDPad,CuDef*
%ADD18RoundRect,0.218750X-0.218750X-0.256250X0.218750X-0.256250X0.218750X0.256250X-0.218750X0.256250X0*%
G04 #@! TD*
G04 #@! TA.AperFunction,SMDPad,CuDef*
%ADD19RoundRect,0.200000X0.200000X0.275000X-0.200000X0.275000X-0.200000X-0.275000X0.200000X-0.275000X0*%
G04 #@! TD*
G04 #@! TA.AperFunction,SMDPad,CuDef*
%ADD20RoundRect,0.150000X-0.587500X-0.150000X0.587500X-0.150000X0.587500X0.150000X-0.587500X0.150000X0*%
G04 #@! TD*
G04 #@! TA.AperFunction,SMDPad,CuDef*
%ADD21RoundRect,0.140000X0.170000X-0.140000X0.170000X0.140000X-0.170000X0.140000X-0.170000X-0.140000X0*%
G04 #@! TD*
G04 #@! TA.AperFunction,SMDPad,CuDef*
%ADD22R,1.400000X1.200000*%
G04 #@! TD*
G04 #@! TA.AperFunction,SMDPad,CuDef*
%ADD23RoundRect,0.200000X-0.275000X0.200000X-0.275000X-0.200000X0.275000X-0.200000X0.275000X0.200000X0*%
G04 #@! TD*
G04 #@! TA.AperFunction,SMDPad,CuDef*
%ADD24RoundRect,0.140000X-0.170000X0.140000X-0.170000X-0.140000X0.170000X-0.140000X0.170000X0.140000X0*%
G04 #@! TD*
G04 #@! TA.AperFunction,SMDPad,CuDef*
%ADD25RoundRect,0.200000X0.275000X-0.200000X0.275000X0.200000X-0.275000X0.200000X-0.275000X-0.200000X0*%
G04 #@! TD*
G04 #@! TA.AperFunction,SMDPad,CuDef*
%ADD26RoundRect,0.250000X-0.450000X-0.425000X0.450000X-0.425000X0.450000X0.425000X-0.450000X0.425000X0*%
G04 #@! TD*
G04 #@! TA.AperFunction,SMDPad,CuDef*
%ADD27R,1.500000X2.000000*%
G04 #@! TD*
G04 #@! TA.AperFunction,SMDPad,CuDef*
%ADD28R,3.800000X2.000000*%
G04 #@! TD*
G04 #@! TA.AperFunction,ViaPad*
%ADD29C,0.800000*%
G04 #@! TD*
G04 #@! TA.AperFunction,Conductor*
%ADD30C,0.250000*%
G04 #@! TD*
G04 APERTURE END LIST*
D10*
G04 #@! TO.P,J1,1,VBUS*
G04 #@! TO.N,+5V*
X146350000Y-94700000D03*
G04 #@! TO.P,J1,2,D-*
G04 #@! TO.N,Net-(J1-Pad2)*
X146350000Y-95350000D03*
G04 #@! TO.P,J1,3,D+*
G04 #@! TO.N,Net-(J1-Pad3)*
X146350000Y-96000000D03*
G04 #@! TO.P,J1,4,ID*
G04 #@! TO.N,unconnected-(J1-Pad4)*
X146350000Y-96650000D03*
D11*
G04 #@! TO.P,J1,5,GND*
G04 #@! TO.N,GND*
X143400001Y-92425001D03*
D10*
X146350000Y-97300000D03*
D11*
X146850000Y-99574999D03*
X143400001Y-99574999D03*
X146850000Y-92425001D03*
G04 #@! TD*
D12*
G04 #@! TO.P,D2,1,K*
G04 #@! TO.N,RXDI*
X168787500Y-98500000D03*
G04 #@! TO.P,D2,2,A*
G04 #@! TO.N,Net-(D2-Pad2)*
X167212500Y-98500000D03*
G04 #@! TD*
D13*
G04 #@! TO.P,U2,1,GND*
G04 #@! TO.N,GND*
X160025000Y-90055000D03*
G04 #@! TO.P,U2,2,TXD*
G04 #@! TO.N,TXDO*
X160025000Y-91325000D03*
G04 #@! TO.P,U2,3,RXD*
G04 #@! TO.N,RXDI*
X160025000Y-92595000D03*
G04 #@! TO.P,U2,4,V3*
G04 #@! TO.N,+3V3*
X160025000Y-93865000D03*
G04 #@! TO.P,U2,5,UD+*
G04 #@! TO.N,Net-(J1-Pad3)*
X160025000Y-95135000D03*
G04 #@! TO.P,U2,6,UD-*
G04 #@! TO.N,Net-(J1-Pad2)*
X160025000Y-96405000D03*
G04 #@! TO.P,U2,7,XI*
G04 #@! TO.N,Net-(C3-Pad1)*
X160025000Y-97675000D03*
G04 #@! TO.P,U2,8,XO*
G04 #@! TO.N,Net-(C4-Pad1)*
X160025000Y-98945000D03*
G04 #@! TO.P,U2,9,~{CTS}*
G04 #@! TO.N,unconnected-(U2-Pad9)*
X164975000Y-98945000D03*
G04 #@! TO.P,U2,10,~{DSR}*
G04 #@! TO.N,unconnected-(U2-Pad10)*
X164975000Y-97675000D03*
G04 #@! TO.P,U2,11,~{RI}*
G04 #@! TO.N,unconnected-(U2-Pad11)*
X164975000Y-96405000D03*
G04 #@! TO.P,U2,12,~{DCD}*
G04 #@! TO.N,unconnected-(U2-Pad12)*
X164975000Y-95135000D03*
G04 #@! TO.P,U2,13,~{DTR}*
G04 #@! TO.N,Net-(Q2-Pad2)*
X164975000Y-93865000D03*
G04 #@! TO.P,U2,14,~{RTS}*
G04 #@! TO.N,Net-(Q1-Pad2)*
X164975000Y-92595000D03*
G04 #@! TO.P,U2,15,R232*
G04 #@! TO.N,unconnected-(U2-Pad15)*
X164975000Y-91325000D03*
G04 #@! TO.P,U2,16,VCC*
G04 #@! TO.N,+3V3*
X164975000Y-90055000D03*
G04 #@! TD*
D14*
G04 #@! TO.P,R3,1*
G04 #@! TO.N,+3V3*
X167175000Y-103000000D03*
G04 #@! TO.P,R3,2*
G04 #@! TO.N,Net-(D3-Pad2)*
X168825000Y-103000000D03*
G04 #@! TD*
D15*
G04 #@! TO.P,J2,1,Pin_1*
G04 #@! TO.N,+3V3*
X175000000Y-102500000D03*
D16*
G04 #@! TO.P,J2,2,Pin_2*
G04 #@! TO.N,GND*
X175000000Y-99960000D03*
G04 #@! TO.P,J2,3,Pin_3*
G04 #@! TO.N,RXDI*
X175000000Y-97420000D03*
G04 #@! TO.P,J2,4,Pin_4*
G04 #@! TO.N,TXDO*
X175000000Y-94880000D03*
G04 #@! TO.P,J2,5,Pin_5*
G04 #@! TO.N,RESET*
X175000000Y-92340000D03*
G04 #@! TO.P,J2,6,Pin_6*
G04 #@! TO.N,BOOT*
X175000000Y-89800000D03*
G04 #@! TD*
D17*
G04 #@! TO.P,C2,1*
G04 #@! TO.N,+3V3*
X152350000Y-100000000D03*
G04 #@! TO.P,C2,2*
G04 #@! TO.N,GND*
X149650000Y-100000000D03*
G04 #@! TD*
D18*
G04 #@! TO.P,D3,1,K*
G04 #@! TO.N,GND*
X167212500Y-101500000D03*
G04 #@! TO.P,D3,2,A*
G04 #@! TO.N,Net-(D3-Pad2)*
X168787500Y-101500000D03*
G04 #@! TD*
D19*
G04 #@! TO.P,R4,1*
G04 #@! TO.N,Net-(R4-Pad1)*
X168825000Y-97000000D03*
G04 #@! TO.P,R4,2*
G04 #@! TO.N,+3V3*
X167175000Y-97000000D03*
G04 #@! TD*
D20*
G04 #@! TO.P,Q1,1,B*
G04 #@! TO.N,Net-(Q1-Pad1)*
X169562500Y-92050000D03*
G04 #@! TO.P,Q1,2,E*
G04 #@! TO.N,Net-(Q1-Pad2)*
X169562500Y-93950000D03*
G04 #@! TO.P,Q1,3,C*
G04 #@! TO.N,RESET*
X171437500Y-93000000D03*
G04 #@! TD*
D21*
G04 #@! TO.P,C4,1*
G04 #@! TO.N,Net-(C4-Pad1)*
X159500000Y-101980000D03*
G04 #@! TO.P,C4,2*
G04 #@! TO.N,GND*
X159500000Y-101020000D03*
G04 #@! TD*
D12*
G04 #@! TO.P,D1,1,K*
G04 #@! TO.N,TXDO*
X168787500Y-95500000D03*
G04 #@! TO.P,D1,2,A*
G04 #@! TO.N,Net-(R4-Pad1)*
X167212500Y-95500000D03*
G04 #@! TD*
D22*
G04 #@! TO.P,Y1,1,1*
G04 #@! TO.N,Net-(C3-Pad1)*
X163600000Y-100650000D03*
G04 #@! TO.P,Y1,2,2*
G04 #@! TO.N,GND*
X161400000Y-100650000D03*
G04 #@! TO.P,Y1,3,3*
G04 #@! TO.N,Net-(C4-Pad1)*
X161400000Y-102350000D03*
G04 #@! TO.P,Y1,4,4*
G04 #@! TO.N,GND*
X163600000Y-102350000D03*
G04 #@! TD*
D19*
G04 #@! TO.P,R5,1*
G04 #@! TO.N,Net-(D2-Pad2)*
X168825000Y-100000000D03*
G04 #@! TO.P,R5,2*
G04 #@! TO.N,+3V3*
X167175000Y-100000000D03*
G04 #@! TD*
D23*
G04 #@! TO.P,R1,1*
G04 #@! TO.N,Net-(Q2-Pad2)*
X167500000Y-92175000D03*
G04 #@! TO.P,R1,2*
G04 #@! TO.N,Net-(Q1-Pad1)*
X167500000Y-93825000D03*
G04 #@! TD*
D24*
G04 #@! TO.P,C3,1*
G04 #@! TO.N,Net-(C3-Pad1)*
X165500000Y-101020000D03*
G04 #@! TO.P,C3,2*
G04 #@! TO.N,GND*
X165500000Y-101980000D03*
G04 #@! TD*
D25*
G04 #@! TO.P,R2,1*
G04 #@! TO.N,Net-(Q1-Pad2)*
X167500000Y-90325000D03*
G04 #@! TO.P,R2,2*
G04 #@! TO.N,Net-(Q2-Pad1)*
X167500000Y-88675000D03*
G04 #@! TD*
D26*
G04 #@! TO.P,C1,1*
G04 #@! TO.N,+5V*
X154650000Y-100000000D03*
G04 #@! TO.P,C1,2*
G04 #@! TO.N,GND*
X157350000Y-100000000D03*
G04 #@! TD*
D20*
G04 #@! TO.P,Q2,1,B*
G04 #@! TO.N,Net-(Q2-Pad1)*
X169562500Y-88550000D03*
G04 #@! TO.P,Q2,2,E*
G04 #@! TO.N,Net-(Q2-Pad2)*
X169562500Y-90450000D03*
G04 #@! TO.P,Q2,3,C*
G04 #@! TO.N,BOOT*
X171437500Y-89500000D03*
G04 #@! TD*
D27*
G04 #@! TO.P,U1,1,GND*
G04 #@! TO.N,GND*
X152200000Y-97650000D03*
G04 #@! TO.P,U1,2,VO*
G04 #@! TO.N,+3V3*
X154500000Y-97650000D03*
D28*
X154500000Y-91350000D03*
D27*
G04 #@! TO.P,U1,3,VI*
G04 #@! TO.N,+5V*
X156800000Y-97650000D03*
G04 #@! TD*
D29*
G04 #@! TO.N,GND*
X161500000Y-90500000D03*
X165000000Y-103500000D03*
X158500000Y-100000000D03*
G04 #@! TO.N,+3V3*
X152500000Y-95500000D03*
X154500000Y-93500000D03*
G04 #@! TO.N,RXDI*
X161500000Y-93000000D03*
G04 #@! TO.N,TXDO*
X161500000Y-91500000D03*
G04 #@! TO.N,Net-(Q2-Pad2)*
X163500000Y-92000000D03*
X167500000Y-92000000D03*
G04 #@! TD*
D30*
G04 #@! TO.N,+5V*
X146350000Y-94700000D02*
X153029570Y-94700000D01*
X156325489Y-96325489D02*
X156800000Y-96800000D01*
X156800000Y-96800000D02*
X156800000Y-97650000D01*
X153029570Y-94700000D02*
X154655060Y-96325489D01*
X154650000Y-99800000D02*
X156800000Y-97650000D01*
X154650000Y-100000000D02*
X154650000Y-99800000D01*
X154655060Y-96325489D02*
X156325489Y-96325489D01*
G04 #@! TO.N,GND*
X149650000Y-100000000D02*
X149850000Y-100000000D01*
X165500000Y-103000000D02*
X165000000Y-103500000D01*
X165500000Y-101980000D02*
X165500000Y-103000000D01*
X160025000Y-90055000D02*
X161055000Y-90055000D01*
X158500000Y-100020000D02*
X159500000Y-101020000D01*
X149224999Y-99574999D02*
X146850000Y-99574999D01*
X168100480Y-103492263D02*
X168407737Y-103799520D01*
X168407737Y-103799520D02*
X171160480Y-103799520D01*
X158500000Y-100000000D02*
X158500000Y-100020000D01*
X163850000Y-102350000D02*
X165000000Y-103500000D01*
X157350000Y-100000000D02*
X158500000Y-100000000D01*
X161055000Y-90055000D02*
X161500000Y-90500000D01*
X149850000Y-100000000D02*
X152200000Y-97650000D01*
X163600000Y-102350000D02*
X163850000Y-102350000D01*
X163600000Y-102350000D02*
X163500000Y-102350000D01*
X161800000Y-100650000D02*
X161400000Y-100650000D01*
X146350000Y-97300000D02*
X146950000Y-97300000D01*
X149650000Y-100000000D02*
X149224999Y-99574999D01*
X168100480Y-102387980D02*
X168100480Y-103492263D01*
X167212500Y-101500000D02*
X168100480Y-102387980D01*
X146950000Y-97300000D02*
X149650000Y-100000000D01*
X163500000Y-102350000D02*
X161800000Y-100650000D01*
X171160480Y-103799520D02*
X175000000Y-99960000D01*
G04 #@! TO.N,+3V3*
X176174511Y-101325489D02*
X176174511Y-89313501D01*
X166134520Y-101040480D02*
X167175000Y-100000000D01*
X174786490Y-87925480D02*
X167032737Y-87925480D01*
X167175000Y-103202487D02*
X168221544Y-104249031D01*
X167032737Y-87925480D02*
X164975000Y-89983217D01*
X158725480Y-89708448D02*
X159003448Y-89430480D01*
X159003448Y-89430480D02*
X164350480Y-89430480D01*
X158725480Y-92941552D02*
X158725480Y-89708448D01*
X159648928Y-93865000D02*
X158725480Y-92941552D01*
X173250969Y-104249031D02*
X175000000Y-102500000D01*
X152350000Y-100000000D02*
X152350000Y-99800000D01*
X164350480Y-89430480D02*
X164975000Y-90055000D01*
X166134520Y-101959520D02*
X166134520Y-101040480D01*
X166134520Y-101959520D02*
X167175000Y-103000000D01*
X152350000Y-99800000D02*
X154500000Y-97650000D01*
X168221544Y-104249031D02*
X173250969Y-104249031D01*
X167175000Y-103000000D02*
X167175000Y-103202487D01*
X166450000Y-99275000D02*
X166450000Y-97725000D01*
X166450000Y-97725000D02*
X167175000Y-97000000D01*
X175000000Y-102500000D02*
X176174511Y-101325489D01*
X154500000Y-93500000D02*
X154500000Y-91350000D01*
X176174511Y-89313501D02*
X174786490Y-87925480D01*
X154500000Y-91350000D02*
X157015000Y-93865000D01*
X167175000Y-100000000D02*
X166450000Y-99275000D01*
X152500000Y-95650000D02*
X152500000Y-95500000D01*
X157015000Y-93865000D02*
X160025000Y-93865000D01*
X160025000Y-93865000D02*
X159648928Y-93865000D01*
X154500000Y-97650000D02*
X152500000Y-95650000D01*
X164975000Y-89983217D02*
X164975000Y-90055000D01*
G04 #@! TO.N,Net-(C3-Pad1)*
X163970000Y-101020000D02*
X163600000Y-100650000D01*
X160625000Y-97675000D02*
X160025000Y-97675000D01*
X163600000Y-100650000D02*
X160625000Y-97675000D01*
X165500000Y-101020000D02*
X163970000Y-101020000D01*
G04 #@! TO.N,Net-(C4-Pad1)*
X159870000Y-102350000D02*
X159500000Y-101980000D01*
X160134520Y-101352410D02*
X160134520Y-99054520D01*
X161400000Y-102350000D02*
X159870000Y-102350000D01*
X160134520Y-99054520D02*
X160025000Y-98945000D01*
X159500000Y-101980000D02*
X159506930Y-101980000D01*
X159506930Y-101980000D02*
X160134520Y-101352410D01*
G04 #@! TO.N,Net-(R4-Pad1)*
X168712500Y-97000000D02*
X167212500Y-95500000D01*
X168825000Y-97000000D02*
X168712500Y-97000000D01*
G04 #@! TO.N,Net-(D2-Pad2)*
X167212500Y-98500000D02*
X167325000Y-98500000D01*
X167325000Y-98500000D02*
X168825000Y-100000000D01*
G04 #@! TO.N,Net-(D3-Pad2)*
X168825000Y-101537500D02*
X168787500Y-101500000D01*
X168825000Y-103000000D02*
X168825000Y-101537500D01*
G04 #@! TO.N,Net-(J1-Pad2)*
X144830479Y-93710248D02*
X145240248Y-93300479D01*
X146350000Y-95350000D02*
X145436682Y-95350000D01*
X159495979Y-95875979D02*
X160025000Y-96405000D01*
X145436682Y-95350000D02*
X144830479Y-94743797D01*
X152265753Y-93300479D02*
X154841253Y-95875979D01*
X154841253Y-95875979D02*
X159495979Y-95875979D01*
X145240248Y-93300479D02*
X152265753Y-93300479D01*
X144830479Y-94743797D02*
X144830479Y-93710248D01*
G04 #@! TO.N,Net-(J1-Pad3)*
X159135000Y-95135000D02*
X160025000Y-95135000D01*
X145450978Y-96000000D02*
X144380968Y-94929990D01*
X159000000Y-95000000D02*
X159135000Y-95135000D01*
X146000000Y-91500000D02*
X151100978Y-91500000D01*
X151100978Y-91500000D02*
X154600978Y-95000000D01*
X146350000Y-96000000D02*
X145450978Y-96000000D01*
X144380968Y-93119032D02*
X146000000Y-91500000D01*
X154600978Y-95000000D02*
X159000000Y-95000000D01*
X144380968Y-94929990D02*
X144380968Y-93119032D01*
G04 #@! TO.N,RXDI*
X168787500Y-98500000D02*
X173920000Y-98500000D01*
X173920000Y-98500000D02*
X175000000Y-97420000D01*
X161095000Y-92595000D02*
X161500000Y-93000000D01*
X160025000Y-92595000D02*
X161095000Y-92595000D01*
G04 #@! TO.N,TXDO*
X169407500Y-94880000D02*
X175000000Y-94880000D01*
X161500000Y-91500000D02*
X160200000Y-91500000D01*
X168787500Y-95500000D02*
X169407500Y-94880000D01*
X160200000Y-91500000D02*
X160025000Y-91325000D01*
G04 #@! TO.N,BOOT*
X171437500Y-89500000D02*
X171737500Y-89800000D01*
X171737500Y-89800000D02*
X175000000Y-89800000D01*
G04 #@! TO.N,RESET*
X172097500Y-92340000D02*
X175000000Y-92340000D01*
X171437500Y-93000000D02*
X172097500Y-92340000D01*
G04 #@! TO.N,Net-(Q1-Pad1)*
X167787500Y-93825000D02*
X169562500Y-92050000D01*
X167500000Y-93825000D02*
X167787500Y-93825000D01*
G04 #@! TO.N,Net-(Q1-Pad2)*
X168812020Y-94700480D02*
X169562500Y-93950000D01*
X165351072Y-92595000D02*
X166500000Y-93743928D01*
X166500000Y-94500000D02*
X166700480Y-94700480D01*
X166500000Y-93743928D02*
X166500000Y-94500000D01*
X164975000Y-92595000D02*
X165351072Y-92595000D01*
X166700480Y-94700480D02*
X168812020Y-94700480D01*
X165351072Y-92595000D02*
X167500000Y-90446072D01*
X167500000Y-90446072D02*
X167500000Y-90325000D01*
G04 #@! TO.N,Net-(Q2-Pad1)*
X169437500Y-88675000D02*
X169562500Y-88550000D01*
X167500000Y-88675000D02*
X169437500Y-88675000D01*
G04 #@! TO.N,Net-(Q2-Pad2)*
X164975000Y-93865000D02*
X164598928Y-93865000D01*
X167500000Y-92175000D02*
X167837500Y-92175000D01*
X167500000Y-92000000D02*
X167500000Y-92175000D01*
X163500000Y-92766072D02*
X163500000Y-92000000D01*
X164598928Y-93865000D02*
X163500000Y-92766072D01*
X167837500Y-92175000D02*
X169562500Y-90450000D01*
G04 #@! TD*
M02*
