G04 #@! TF.GenerationSoftware,KiCad,Pcbnew,6.0.6-3a73a75311~116~ubuntu22.04.1*
G04 #@! TF.CreationDate,2022-06-27T15:48:28+01:00*
G04 #@! TF.ProjectId,CH340G_Programmer,43483334-3047-45f5-9072-6f6772616d6d,rev?*
G04 #@! TF.SameCoordinates,Original*
G04 #@! TF.FileFunction,Copper,L2,Bot*
G04 #@! TF.FilePolarity,Positive*
%FSLAX46Y46*%
G04 Gerber Fmt 4.6, Leading zero omitted, Abs format (unit mm)*
G04 Created by KiCad (PCBNEW 6.0.6-3a73a75311~116~ubuntu22.04.1) date 2022-06-27 15:48:28*
%MOMM*%
%LPD*%
G01*
G04 APERTURE LIST*
G04 #@! TA.AperFunction,ComponentPad*
%ADD10O,1.850000X1.050000*%
G04 #@! TD*
G04 #@! TA.AperFunction,ComponentPad*
%ADD11R,1.700000X1.700000*%
G04 #@! TD*
G04 #@! TA.AperFunction,ComponentPad*
%ADD12O,1.700000X1.700000*%
G04 #@! TD*
G04 #@! TA.AperFunction,ViaPad*
%ADD13C,0.800000*%
G04 #@! TD*
G04 #@! TA.AperFunction,Conductor*
%ADD14C,0.250000*%
G04 #@! TD*
G04 APERTURE END LIST*
D10*
G04 #@! TO.P,J1,5,GND*
G04 #@! TO.N,GND*
X143400001Y-92425001D03*
X146850000Y-99574999D03*
X143400001Y-99574999D03*
X146850000Y-92425001D03*
G04 #@! TD*
D11*
G04 #@! TO.P,J2,1,Pin_1*
G04 #@! TO.N,+3V3*
X175000000Y-102500000D03*
D12*
G04 #@! TO.P,J2,2,Pin_2*
G04 #@! TO.N,GND*
X175000000Y-99960000D03*
G04 #@! TO.P,J2,3,Pin_3*
G04 #@! TO.N,RXDI*
X175000000Y-97420000D03*
G04 #@! TO.P,J2,4,Pin_4*
G04 #@! TO.N,TXDO*
X175000000Y-94880000D03*
G04 #@! TO.P,J2,5,Pin_5*
G04 #@! TO.N,RESET*
X175000000Y-92340000D03*
G04 #@! TO.P,J2,6,Pin_6*
G04 #@! TO.N,BOOT*
X175000000Y-89800000D03*
G04 #@! TD*
D13*
G04 #@! TO.N,GND*
X161500000Y-90500000D03*
X165000000Y-103500000D03*
X158500000Y-100000000D03*
G04 #@! TO.N,+3V3*
X152500000Y-95500000D03*
X154500000Y-93500000D03*
G04 #@! TO.N,RXDI*
X161500000Y-93000000D03*
G04 #@! TO.N,TXDO*
X161500000Y-91500000D03*
G04 #@! TO.N,Net-(Q2-Pad2)*
X163500000Y-92000000D03*
X167500000Y-92000000D03*
G04 #@! TD*
D14*
G04 #@! TO.N,+3V3*
X152500000Y-95500000D02*
X154500000Y-93500000D01*
G04 #@! TO.N,RXDI*
X161500000Y-93000000D02*
X165920000Y-97420000D01*
X165920000Y-97420000D02*
X175000000Y-97420000D01*
G04 #@! TO.N,TXDO*
X164880000Y-94880000D02*
X161500000Y-91500000D01*
X175000000Y-94880000D02*
X164880000Y-94880000D01*
G04 #@! TO.N,Net-(Q2-Pad2)*
X163500000Y-92000000D02*
X167500000Y-92000000D01*
G04 #@! TD*
G04 #@! TA.AperFunction,Conductor*
G04 #@! TO.N,GND*
G36*
X177933621Y-87528502D02*
G01*
X177980114Y-87582158D01*
X177991500Y-87634500D01*
X177991500Y-104865500D01*
X177971498Y-104933621D01*
X177917842Y-104980114D01*
X177865500Y-104991500D01*
X167055557Y-104991500D01*
X167033660Y-104989583D01*
X162365592Y-104165806D01*
X162365168Y-104165730D01*
X158100746Y-103398134D01*
X173641500Y-103398134D01*
X173648255Y-103460316D01*
X173699385Y-103596705D01*
X173786739Y-103713261D01*
X173903295Y-103800615D01*
X174039684Y-103851745D01*
X174101866Y-103858500D01*
X175898134Y-103858500D01*
X175960316Y-103851745D01*
X176096705Y-103800615D01*
X176213261Y-103713261D01*
X176300615Y-103596705D01*
X176351745Y-103460316D01*
X176358500Y-103398134D01*
X176358500Y-101601866D01*
X176351745Y-101539684D01*
X176300615Y-101403295D01*
X176213261Y-101286739D01*
X176096705Y-101199385D01*
X175977687Y-101154767D01*
X175920923Y-101112125D01*
X175896223Y-101045564D01*
X175911430Y-100976215D01*
X175932977Y-100947535D01*
X176034052Y-100846812D01*
X176040730Y-100838965D01*
X176165003Y-100666020D01*
X176170313Y-100657183D01*
X176264670Y-100466267D01*
X176268469Y-100456672D01*
X176330377Y-100252910D01*
X176332555Y-100242837D01*
X176333986Y-100231962D01*
X176331775Y-100217778D01*
X176318617Y-100214000D01*
X173683225Y-100214000D01*
X173669694Y-100217973D01*
X173668257Y-100227966D01*
X173698565Y-100362446D01*
X173701645Y-100372275D01*
X173781770Y-100569603D01*
X173786413Y-100578794D01*
X173897694Y-100760388D01*
X173903777Y-100768699D01*
X174043213Y-100929667D01*
X174050577Y-100936879D01*
X174055522Y-100940985D01*
X174095156Y-100999889D01*
X174096653Y-101070870D01*
X174059537Y-101131392D01*
X174019264Y-101155910D01*
X173911705Y-101196232D01*
X173911704Y-101196233D01*
X173903295Y-101199385D01*
X173786739Y-101286739D01*
X173699385Y-101403295D01*
X173648255Y-101539684D01*
X173641500Y-101601866D01*
X173641500Y-103398134D01*
X158100746Y-103398134D01*
X143934579Y-100848224D01*
X143871079Y-100816471D01*
X143834827Y-100755427D01*
X143837332Y-100684475D01*
X143877799Y-100626140D01*
X143944605Y-100598818D01*
X143995481Y-100593830D01*
X144007520Y-100591446D01*
X144189652Y-100536457D01*
X144200994Y-100531782D01*
X144368978Y-100442464D01*
X144379194Y-100435677D01*
X144526635Y-100315427D01*
X144535339Y-100306783D01*
X144656611Y-100160190D01*
X144663471Y-100150019D01*
X144753963Y-99982657D01*
X144758715Y-99971352D01*
X144797423Y-99846307D01*
X144797504Y-99840767D01*
X145451363Y-99840767D01*
X145485846Y-99957931D01*
X145490439Y-99969299D01*
X145578586Y-100137910D01*
X145585302Y-100148172D01*
X145704515Y-100296442D01*
X145713103Y-100305212D01*
X145858838Y-100427498D01*
X145868969Y-100434436D01*
X146035692Y-100526093D01*
X146046962Y-100530923D01*
X146228315Y-100588451D01*
X146240309Y-100591001D01*
X146388350Y-100607606D01*
X146395374Y-100607999D01*
X146577885Y-100607999D01*
X146593124Y-100603524D01*
X146594329Y-100602134D01*
X146596000Y-100594451D01*
X146596000Y-100589884D01*
X147104000Y-100589884D01*
X147108475Y-100605123D01*
X147109865Y-100606328D01*
X147117548Y-100607999D01*
X147297890Y-100607999D01*
X147304035Y-100607699D01*
X147445481Y-100593829D01*
X147457519Y-100591446D01*
X147639651Y-100536457D01*
X147650993Y-100531782D01*
X147818977Y-100442464D01*
X147829193Y-100435677D01*
X147976634Y-100315427D01*
X147985338Y-100306783D01*
X148106610Y-100160190D01*
X148113470Y-100150019D01*
X148203962Y-99982657D01*
X148208714Y-99971352D01*
X148247422Y-99846307D01*
X148247628Y-99832204D01*
X148240873Y-99828999D01*
X147122115Y-99828999D01*
X147106876Y-99833474D01*
X147105671Y-99834864D01*
X147104000Y-99842547D01*
X147104000Y-100589884D01*
X146596000Y-100589884D01*
X146596000Y-99847114D01*
X146591525Y-99831875D01*
X146590135Y-99830670D01*
X146582452Y-99828999D01*
X145466014Y-99828999D01*
X145452483Y-99832972D01*
X145451363Y-99840767D01*
X144797504Y-99840767D01*
X144797629Y-99832204D01*
X144790874Y-99828999D01*
X143272001Y-99828999D01*
X143203880Y-99808997D01*
X143157387Y-99755341D01*
X143146001Y-99702999D01*
X143146001Y-99302884D01*
X143654001Y-99302884D01*
X143658476Y-99318123D01*
X143659866Y-99319328D01*
X143667549Y-99320999D01*
X144783987Y-99320999D01*
X144797518Y-99317026D01*
X144798638Y-99309231D01*
X144764155Y-99192067D01*
X144759562Y-99180699D01*
X144671415Y-99012088D01*
X144664699Y-99001826D01*
X144545486Y-98853556D01*
X144536898Y-98844786D01*
X144391163Y-98722500D01*
X144381032Y-98715562D01*
X144214309Y-98623905D01*
X144203039Y-98619075D01*
X144021686Y-98561547D01*
X144009692Y-98558997D01*
X143861651Y-98542392D01*
X143854627Y-98541999D01*
X143672116Y-98541999D01*
X143656877Y-98546474D01*
X143655672Y-98547864D01*
X143654001Y-98555547D01*
X143654001Y-99302884D01*
X143146001Y-99302884D01*
X143146001Y-98560114D01*
X143141526Y-98544875D01*
X143140136Y-98543670D01*
X143132453Y-98541999D01*
X142952111Y-98541999D01*
X142945966Y-98542299D01*
X142804520Y-98556169D01*
X142792482Y-98558552D01*
X142610350Y-98613541D01*
X142599008Y-98618216D01*
X142431024Y-98707534D01*
X142420808Y-98714321D01*
X142273367Y-98834571D01*
X142264663Y-98843215D01*
X142231585Y-98883200D01*
X142172751Y-98922938D01*
X142101773Y-98924561D01*
X142041186Y-98887552D01*
X142010225Y-98823662D01*
X142008500Y-98802885D01*
X142008500Y-97953198D01*
X144692892Y-97953198D01*
X144693249Y-97960015D01*
X144693249Y-97960019D01*
X144698151Y-98053539D01*
X144702370Y-98134047D01*
X144704181Y-98140620D01*
X144704181Y-98140623D01*
X144729296Y-98231803D01*
X144750461Y-98308641D01*
X144834922Y-98468836D01*
X144839327Y-98474049D01*
X144839330Y-98474053D01*
X144947406Y-98601943D01*
X144947410Y-98601947D01*
X144951813Y-98607157D01*
X144957237Y-98611304D01*
X144957238Y-98611305D01*
X145090257Y-98713006D01*
X145090261Y-98713009D01*
X145095678Y-98717150D01*
X145169743Y-98751687D01*
X145253631Y-98790805D01*
X145253634Y-98790806D01*
X145259808Y-98793685D01*
X145266456Y-98795171D01*
X145266459Y-98795172D01*
X145372421Y-98818857D01*
X145436543Y-98833190D01*
X145442088Y-98833500D01*
X145465177Y-98833500D01*
X145533298Y-98853502D01*
X145579791Y-98907158D01*
X145589895Y-98977432D01*
X145576013Y-99019429D01*
X145496038Y-99167341D01*
X145491286Y-99178646D01*
X145452578Y-99303691D01*
X145452372Y-99317794D01*
X145459127Y-99320999D01*
X146577885Y-99320999D01*
X146593124Y-99316524D01*
X146594329Y-99315134D01*
X146596000Y-99307451D01*
X146596000Y-99302884D01*
X147104000Y-99302884D01*
X147108475Y-99318123D01*
X147109865Y-99319328D01*
X147117548Y-99320999D01*
X148233986Y-99320999D01*
X148247517Y-99317026D01*
X148248637Y-99309231D01*
X148214154Y-99192067D01*
X148209561Y-99180699D01*
X148121414Y-99012088D01*
X148114698Y-99001826D01*
X147995485Y-98853556D01*
X147986897Y-98844786D01*
X147841162Y-98722500D01*
X147831031Y-98715562D01*
X147664308Y-98623905D01*
X147653038Y-98619075D01*
X147471685Y-98561547D01*
X147459691Y-98558997D01*
X147311650Y-98542392D01*
X147304626Y-98541999D01*
X147122115Y-98541999D01*
X147106876Y-98546474D01*
X147105671Y-98547864D01*
X147104000Y-98555547D01*
X147104000Y-99302884D01*
X146596000Y-99302884D01*
X146596000Y-98560114D01*
X146591525Y-98544875D01*
X146590135Y-98543670D01*
X146582452Y-98541999D01*
X146399028Y-98541999D01*
X146399028Y-98540953D01*
X146334135Y-98525304D01*
X146285072Y-98473987D01*
X146271541Y-98404292D01*
X146279998Y-98369307D01*
X146334996Y-98231803D01*
X146334997Y-98231798D01*
X146337530Y-98225466D01*
X146338644Y-98218738D01*
X146338645Y-98218734D01*
X146365993Y-98053539D01*
X146365993Y-98053536D01*
X146367108Y-98046802D01*
X146366460Y-98034423D01*
X146357987Y-97872766D01*
X146357630Y-97865953D01*
X146334304Y-97781266D01*
X146311352Y-97697941D01*
X146309539Y-97691359D01*
X146225078Y-97531164D01*
X146220673Y-97525951D01*
X146220670Y-97525947D01*
X146112594Y-97398057D01*
X146112590Y-97398053D01*
X146108187Y-97392843D01*
X146102762Y-97388695D01*
X145969743Y-97286994D01*
X145969739Y-97286991D01*
X145964322Y-97282850D01*
X145859186Y-97233825D01*
X145806369Y-97209195D01*
X145806366Y-97209194D01*
X145800192Y-97206315D01*
X145793544Y-97204829D01*
X145793541Y-97204828D01*
X145628494Y-97167936D01*
X145628495Y-97167936D01*
X145623457Y-97166810D01*
X145617912Y-97166500D01*
X145484756Y-97166500D01*
X145349963Y-97181143D01*
X145266609Y-97209195D01*
X145184796Y-97236728D01*
X145184794Y-97236729D01*
X145178325Y-97238906D01*
X145023095Y-97332177D01*
X145018138Y-97336865D01*
X145018135Y-97336867D01*
X144926667Y-97423365D01*
X144891515Y-97456607D01*
X144887683Y-97462245D01*
X144887680Y-97462249D01*
X144836740Y-97537205D01*
X144789723Y-97606388D01*
X144722470Y-97774534D01*
X144721356Y-97781262D01*
X144721355Y-97781266D01*
X144694026Y-97946348D01*
X144692892Y-97953198D01*
X142008500Y-97953198D01*
X142008500Y-95500000D01*
X151586496Y-95500000D01*
X151587186Y-95506565D01*
X151595123Y-95582077D01*
X151606458Y-95689928D01*
X151665473Y-95871556D01*
X151760960Y-96036944D01*
X151765378Y-96041851D01*
X151765379Y-96041852D01*
X151861985Y-96149144D01*
X151888747Y-96178866D01*
X152043248Y-96291118D01*
X152049276Y-96293802D01*
X152049278Y-96293803D01*
X152211681Y-96366109D01*
X152217712Y-96368794D01*
X152311113Y-96388647D01*
X152398056Y-96407128D01*
X152398061Y-96407128D01*
X152404513Y-96408500D01*
X152595487Y-96408500D01*
X152601939Y-96407128D01*
X152601944Y-96407128D01*
X152688887Y-96388647D01*
X152782288Y-96368794D01*
X152788319Y-96366109D01*
X152950722Y-96293803D01*
X152950724Y-96293802D01*
X152956752Y-96291118D01*
X153111253Y-96178866D01*
X153138015Y-96149144D01*
X153234621Y-96041852D01*
X153234622Y-96041851D01*
X153239040Y-96036944D01*
X153334527Y-95871556D01*
X153393542Y-95689928D01*
X153410907Y-95524706D01*
X153437920Y-95459050D01*
X153447122Y-95448782D01*
X154450500Y-94445405D01*
X154512812Y-94411379D01*
X154539595Y-94408500D01*
X154595487Y-94408500D01*
X154601939Y-94407128D01*
X154601944Y-94407128D01*
X154695342Y-94387275D01*
X154782288Y-94368794D01*
X154917395Y-94308641D01*
X154950722Y-94293803D01*
X154950724Y-94293802D01*
X154956752Y-94291118D01*
X155111253Y-94178866D01*
X155239040Y-94036944D01*
X155313197Y-93908500D01*
X155331223Y-93877279D01*
X155331224Y-93877278D01*
X155334527Y-93871556D01*
X155393542Y-93689928D01*
X155402030Y-93609174D01*
X155412814Y-93506565D01*
X155413504Y-93500000D01*
X155409058Y-93457701D01*
X155394232Y-93316635D01*
X155394232Y-93316633D01*
X155393542Y-93310072D01*
X155334527Y-93128444D01*
X155319857Y-93103034D01*
X155284663Y-93042077D01*
X155260370Y-93000000D01*
X160586496Y-93000000D01*
X160587186Y-93006565D01*
X160605535Y-93181143D01*
X160606458Y-93189928D01*
X160665473Y-93371556D01*
X160668776Y-93377278D01*
X160668777Y-93377279D01*
X160670882Y-93380925D01*
X160760960Y-93536944D01*
X160765378Y-93541851D01*
X160765379Y-93541852D01*
X160881992Y-93671364D01*
X160888747Y-93678866D01*
X161043248Y-93791118D01*
X161049276Y-93793802D01*
X161049278Y-93793803D01*
X161196561Y-93859377D01*
X161217712Y-93868794D01*
X161311113Y-93888647D01*
X161398056Y-93907128D01*
X161398061Y-93907128D01*
X161404513Y-93908500D01*
X161460406Y-93908500D01*
X161528527Y-93928502D01*
X161549501Y-93945405D01*
X163521624Y-95917529D01*
X165416348Y-97812253D01*
X165423888Y-97820539D01*
X165428000Y-97827018D01*
X165433777Y-97832443D01*
X165477651Y-97873643D01*
X165480493Y-97876398D01*
X165500230Y-97896135D01*
X165503427Y-97898615D01*
X165512447Y-97906318D01*
X165544679Y-97936586D01*
X165551625Y-97940405D01*
X165551628Y-97940407D01*
X165562434Y-97946348D01*
X165578953Y-97957199D01*
X165594959Y-97969614D01*
X165602228Y-97972759D01*
X165602232Y-97972762D01*
X165635537Y-97987174D01*
X165646187Y-97992391D01*
X165684940Y-98013695D01*
X165692615Y-98015666D01*
X165692616Y-98015666D01*
X165704562Y-98018733D01*
X165723267Y-98025137D01*
X165741855Y-98033181D01*
X165749678Y-98034420D01*
X165749688Y-98034423D01*
X165785524Y-98040099D01*
X165797144Y-98042505D01*
X165832289Y-98051528D01*
X165839970Y-98053500D01*
X165860224Y-98053500D01*
X165879934Y-98055051D01*
X165899943Y-98058220D01*
X165907835Y-98057474D01*
X165943961Y-98054059D01*
X165955819Y-98053500D01*
X173724274Y-98053500D01*
X173792395Y-98073502D01*
X173831707Y-98113665D01*
X173899987Y-98225088D01*
X174046250Y-98393938D01*
X174218126Y-98536632D01*
X174258311Y-98560114D01*
X174291955Y-98579774D01*
X174340679Y-98631412D01*
X174353750Y-98701195D01*
X174327019Y-98766967D01*
X174286562Y-98800327D01*
X174278457Y-98804546D01*
X174269738Y-98810036D01*
X174099433Y-98937905D01*
X174091726Y-98944748D01*
X173944590Y-99098717D01*
X173938104Y-99106727D01*
X173818098Y-99282649D01*
X173813000Y-99291623D01*
X173723338Y-99484783D01*
X173719775Y-99494470D01*
X173664389Y-99694183D01*
X173665912Y-99702607D01*
X173678292Y-99706000D01*
X176318344Y-99706000D01*
X176331875Y-99702027D01*
X176333180Y-99692947D01*
X176291214Y-99525875D01*
X176287894Y-99516124D01*
X176202972Y-99320814D01*
X176198105Y-99311739D01*
X176082426Y-99132926D01*
X176076136Y-99124757D01*
X175932806Y-98967240D01*
X175925273Y-98960215D01*
X175758139Y-98828222D01*
X175749556Y-98822520D01*
X175712602Y-98802120D01*
X175662631Y-98751687D01*
X175647859Y-98682245D01*
X175672975Y-98615839D01*
X175700327Y-98589232D01*
X175758323Y-98547864D01*
X175879860Y-98461173D01*
X176038096Y-98303489D01*
X176168453Y-98122077D01*
X176172611Y-98113665D01*
X176265136Y-97926453D01*
X176265137Y-97926451D01*
X176267430Y-97921811D01*
X176332370Y-97708069D01*
X176361529Y-97486590D01*
X176363156Y-97420000D01*
X176344852Y-97197361D01*
X176290431Y-96980702D01*
X176201354Y-96775840D01*
X176080014Y-96588277D01*
X175929670Y-96423051D01*
X175925619Y-96419852D01*
X175925615Y-96419848D01*
X175758414Y-96287800D01*
X175758410Y-96287798D01*
X175754359Y-96284598D01*
X175713053Y-96261796D01*
X175663084Y-96211364D01*
X175648312Y-96141921D01*
X175673428Y-96075516D01*
X175700780Y-96048909D01*
X175744603Y-96017650D01*
X175879860Y-95921173D01*
X176038096Y-95763489D01*
X176086444Y-95696206D01*
X176165435Y-95586277D01*
X176168453Y-95582077D01*
X176172611Y-95573665D01*
X176265136Y-95386453D01*
X176265137Y-95386451D01*
X176267430Y-95381811D01*
X176332370Y-95168069D01*
X176361529Y-94946590D01*
X176363156Y-94880000D01*
X176344852Y-94657361D01*
X176290431Y-94440702D01*
X176201354Y-94235840D01*
X176080014Y-94048277D01*
X175929670Y-93883051D01*
X175925619Y-93879852D01*
X175925615Y-93879848D01*
X175758414Y-93747800D01*
X175758410Y-93747798D01*
X175754359Y-93744598D01*
X175713053Y-93721796D01*
X175663084Y-93671364D01*
X175648312Y-93601921D01*
X175673428Y-93535516D01*
X175700780Y-93508909D01*
X175747908Y-93475293D01*
X175879860Y-93381173D01*
X176038096Y-93223489D01*
X176086028Y-93156785D01*
X176165435Y-93046277D01*
X176168453Y-93042077D01*
X176184212Y-93010192D01*
X176265136Y-92846453D01*
X176265137Y-92846451D01*
X176267430Y-92841811D01*
X176332370Y-92628069D01*
X176361529Y-92406590D01*
X176363156Y-92340000D01*
X176344852Y-92117361D01*
X176290431Y-91900702D01*
X176201354Y-91695840D01*
X176140518Y-91601802D01*
X176082822Y-91512617D01*
X176082820Y-91512614D01*
X176080014Y-91508277D01*
X175929670Y-91343051D01*
X175925619Y-91339852D01*
X175925615Y-91339848D01*
X175758414Y-91207800D01*
X175758410Y-91207798D01*
X175754359Y-91204598D01*
X175713053Y-91181796D01*
X175663084Y-91131364D01*
X175648312Y-91061921D01*
X175673428Y-90995516D01*
X175700780Y-90968909D01*
X175760036Y-90926642D01*
X175879860Y-90841173D01*
X176038096Y-90683489D01*
X176091783Y-90608776D01*
X176165435Y-90506277D01*
X176168453Y-90502077D01*
X176173820Y-90491219D01*
X176265136Y-90306453D01*
X176265137Y-90306451D01*
X176267430Y-90301811D01*
X176332370Y-90088069D01*
X176361529Y-89866590D01*
X176363156Y-89800000D01*
X176344852Y-89577361D01*
X176290431Y-89360702D01*
X176201354Y-89155840D01*
X176080014Y-88968277D01*
X175929670Y-88803051D01*
X175925619Y-88799852D01*
X175925615Y-88799848D01*
X175758414Y-88667800D01*
X175758410Y-88667798D01*
X175754359Y-88664598D01*
X175558789Y-88556638D01*
X175553920Y-88554914D01*
X175553916Y-88554912D01*
X175353087Y-88483795D01*
X175353083Y-88483794D01*
X175348212Y-88482069D01*
X175343119Y-88481162D01*
X175343116Y-88481161D01*
X175133373Y-88443800D01*
X175133367Y-88443799D01*
X175128284Y-88442894D01*
X175054452Y-88441992D01*
X174910081Y-88440228D01*
X174910079Y-88440228D01*
X174904911Y-88440165D01*
X174684091Y-88473955D01*
X174471756Y-88543357D01*
X174273607Y-88646507D01*
X174269474Y-88649610D01*
X174269471Y-88649612D01*
X174245247Y-88667800D01*
X174094965Y-88780635D01*
X173940629Y-88942138D01*
X173814743Y-89126680D01*
X173720688Y-89329305D01*
X173660989Y-89544570D01*
X173637251Y-89766695D01*
X173637548Y-89771848D01*
X173637548Y-89771851D01*
X173643011Y-89866590D01*
X173650110Y-89989715D01*
X173651247Y-89994761D01*
X173651248Y-89994767D01*
X173671119Y-90082939D01*
X173699222Y-90207639D01*
X173783266Y-90414616D01*
X173785965Y-90419020D01*
X173857173Y-90535221D01*
X173899987Y-90605088D01*
X174046250Y-90773938D01*
X174218126Y-90916632D01*
X174288595Y-90957811D01*
X174291445Y-90959476D01*
X174340169Y-91011114D01*
X174353240Y-91080897D01*
X174326509Y-91146669D01*
X174286055Y-91180027D01*
X174273607Y-91186507D01*
X174269474Y-91189610D01*
X174269471Y-91189612D01*
X174099100Y-91317530D01*
X174094965Y-91320635D01*
X173940629Y-91482138D01*
X173937715Y-91486410D01*
X173937714Y-91486411D01*
X173889196Y-91557536D01*
X173814743Y-91666680D01*
X173801038Y-91696206D01*
X173728801Y-91851828D01*
X173720688Y-91869305D01*
X173660989Y-92084570D01*
X173637251Y-92306695D01*
X173637548Y-92311848D01*
X173637548Y-92311851D01*
X173646596Y-92468774D01*
X173650110Y-92529715D01*
X173651247Y-92534761D01*
X173651248Y-92534767D01*
X173651739Y-92536944D01*
X173699222Y-92747639D01*
X173783266Y-92954616D01*
X173785965Y-92959020D01*
X173889788Y-93128444D01*
X173899987Y-93145088D01*
X174046250Y-93313938D01*
X174127235Y-93381173D01*
X174212711Y-93452136D01*
X174218126Y-93456632D01*
X174250061Y-93475293D01*
X174291445Y-93499476D01*
X174340169Y-93551114D01*
X174353240Y-93620897D01*
X174326509Y-93686669D01*
X174286055Y-93720027D01*
X174273607Y-93726507D01*
X174269474Y-93729610D01*
X174269471Y-93729612D01*
X174192722Y-93787237D01*
X174094965Y-93860635D01*
X173940629Y-94022138D01*
X173937715Y-94026410D01*
X173937714Y-94026411D01*
X173825095Y-94191504D01*
X173770184Y-94236507D01*
X173721007Y-94246500D01*
X165194594Y-94246500D01*
X165126473Y-94226498D01*
X165105499Y-94209595D01*
X163899753Y-93003848D01*
X163865727Y-92941536D01*
X163870792Y-92870720D01*
X163913339Y-92813885D01*
X163937596Y-92799647D01*
X163950721Y-92793803D01*
X163956752Y-92791118D01*
X164016596Y-92747639D01*
X164105599Y-92682974D01*
X164111253Y-92678866D01*
X164115668Y-92673963D01*
X164120580Y-92669540D01*
X164121705Y-92670789D01*
X164175014Y-92637949D01*
X164208200Y-92633500D01*
X166791800Y-92633500D01*
X166859921Y-92653502D01*
X166879147Y-92669843D01*
X166879420Y-92669540D01*
X166884332Y-92673963D01*
X166888747Y-92678866D01*
X166894401Y-92682974D01*
X166983405Y-92747639D01*
X167043248Y-92791118D01*
X167049276Y-92793802D01*
X167049278Y-92793803D01*
X167167533Y-92846453D01*
X167217712Y-92868794D01*
X167311112Y-92888647D01*
X167398056Y-92907128D01*
X167398061Y-92907128D01*
X167404513Y-92908500D01*
X167595487Y-92908500D01*
X167601939Y-92907128D01*
X167601944Y-92907128D01*
X167688887Y-92888647D01*
X167782288Y-92868794D01*
X167832467Y-92846453D01*
X167950722Y-92793803D01*
X167950724Y-92793802D01*
X167956752Y-92791118D01*
X168111253Y-92678866D01*
X168239040Y-92536944D01*
X168334527Y-92371556D01*
X168393542Y-92189928D01*
X168396090Y-92165690D01*
X168412814Y-92006565D01*
X168413504Y-92000000D01*
X168403595Y-91905720D01*
X168394232Y-91816635D01*
X168394232Y-91816633D01*
X168393542Y-91810072D01*
X168334527Y-91628444D01*
X168239040Y-91463056D01*
X168177652Y-91394877D01*
X168115675Y-91326045D01*
X168115674Y-91326044D01*
X168111253Y-91321134D01*
X167956752Y-91208882D01*
X167950724Y-91206198D01*
X167950722Y-91206197D01*
X167788319Y-91133891D01*
X167788318Y-91133891D01*
X167782288Y-91131206D01*
X167688888Y-91111353D01*
X167601944Y-91092872D01*
X167601939Y-91092872D01*
X167595487Y-91091500D01*
X167404513Y-91091500D01*
X167398061Y-91092872D01*
X167398056Y-91092872D01*
X167311112Y-91111353D01*
X167217712Y-91131206D01*
X167211682Y-91133891D01*
X167211681Y-91133891D01*
X167049278Y-91206197D01*
X167049276Y-91206198D01*
X167043248Y-91208882D01*
X166888747Y-91321134D01*
X166884332Y-91326037D01*
X166879420Y-91330460D01*
X166878295Y-91329211D01*
X166824986Y-91362051D01*
X166791800Y-91366500D01*
X164208200Y-91366500D01*
X164140079Y-91346498D01*
X164120853Y-91330157D01*
X164120580Y-91330460D01*
X164115668Y-91326037D01*
X164111253Y-91321134D01*
X163956752Y-91208882D01*
X163950724Y-91206198D01*
X163950722Y-91206197D01*
X163788319Y-91133891D01*
X163788318Y-91133891D01*
X163782288Y-91131206D01*
X163688888Y-91111353D01*
X163601944Y-91092872D01*
X163601939Y-91092872D01*
X163595487Y-91091500D01*
X163404513Y-91091500D01*
X163398061Y-91092872D01*
X163398056Y-91092872D01*
X163311112Y-91111353D01*
X163217712Y-91131206D01*
X163211682Y-91133891D01*
X163211681Y-91133891D01*
X163049278Y-91206197D01*
X163049276Y-91206198D01*
X163043248Y-91208882D01*
X162888747Y-91321134D01*
X162884326Y-91326044D01*
X162884325Y-91326045D01*
X162822349Y-91394877D01*
X162760960Y-91463056D01*
X162701777Y-91565564D01*
X162695921Y-91575707D01*
X162644539Y-91624700D01*
X162574825Y-91638136D01*
X162508914Y-91611750D01*
X162497707Y-91601802D01*
X162447122Y-91551217D01*
X162413096Y-91488905D01*
X162410907Y-91475292D01*
X162410762Y-91473907D01*
X162397410Y-91346870D01*
X162394232Y-91316635D01*
X162394232Y-91316633D01*
X162393542Y-91310072D01*
X162334527Y-91128444D01*
X162313990Y-91092872D01*
X162242341Y-90968774D01*
X162239040Y-90963056D01*
X162111253Y-90821134D01*
X161975516Y-90722515D01*
X161962094Y-90712763D01*
X161962093Y-90712762D01*
X161956752Y-90708882D01*
X161950724Y-90706198D01*
X161950722Y-90706197D01*
X161788319Y-90633891D01*
X161788318Y-90633891D01*
X161782288Y-90631206D01*
X161676764Y-90608776D01*
X161601944Y-90592872D01*
X161601939Y-90592872D01*
X161595487Y-90591500D01*
X161404513Y-90591500D01*
X161398061Y-90592872D01*
X161398056Y-90592872D01*
X161323236Y-90608776D01*
X161217712Y-90631206D01*
X161211682Y-90633891D01*
X161211681Y-90633891D01*
X161049278Y-90706197D01*
X161049276Y-90706198D01*
X161043248Y-90708882D01*
X161037907Y-90712762D01*
X161037906Y-90712763D01*
X161024484Y-90722515D01*
X160888747Y-90821134D01*
X160760960Y-90963056D01*
X160757659Y-90968774D01*
X160686011Y-91092872D01*
X160665473Y-91128444D01*
X160606458Y-91310072D01*
X160605768Y-91316633D01*
X160605768Y-91316635D01*
X160596423Y-91405549D01*
X160586496Y-91500000D01*
X160587186Y-91506565D01*
X160604015Y-91666680D01*
X160606458Y-91689928D01*
X160665473Y-91871556D01*
X160760960Y-92036944D01*
X160765378Y-92041851D01*
X160765379Y-92041852D01*
X160876883Y-92165690D01*
X160907601Y-92229697D01*
X160898836Y-92300151D01*
X160876883Y-92334310D01*
X160765379Y-92458148D01*
X160760960Y-92463056D01*
X160757659Y-92468774D01*
X160686011Y-92592872D01*
X160665473Y-92628444D01*
X160606458Y-92810072D01*
X160586496Y-93000000D01*
X155260370Y-93000000D01*
X155239040Y-92963056D01*
X155227131Y-92949829D01*
X155115675Y-92826045D01*
X155115674Y-92826044D01*
X155111253Y-92821134D01*
X154956752Y-92708882D01*
X154950724Y-92706198D01*
X154950722Y-92706197D01*
X154788319Y-92633891D01*
X154788318Y-92633891D01*
X154782288Y-92631206D01*
X154688888Y-92611353D01*
X154601944Y-92592872D01*
X154601939Y-92592872D01*
X154595487Y-92591500D01*
X154404513Y-92591500D01*
X154398061Y-92592872D01*
X154398056Y-92592872D01*
X154311113Y-92611353D01*
X154217712Y-92631206D01*
X154211682Y-92633891D01*
X154211681Y-92633891D01*
X154049278Y-92706197D01*
X154049276Y-92706198D01*
X154043248Y-92708882D01*
X153888747Y-92821134D01*
X153884326Y-92826044D01*
X153884325Y-92826045D01*
X153772870Y-92949829D01*
X153760960Y-92963056D01*
X153715337Y-93042077D01*
X153680144Y-93103034D01*
X153665473Y-93128444D01*
X153606458Y-93310072D01*
X153605768Y-93316633D01*
X153605768Y-93316635D01*
X153604504Y-93328661D01*
X153590142Y-93465315D01*
X153589093Y-93475293D01*
X153562080Y-93540950D01*
X153552878Y-93551218D01*
X152549500Y-94554595D01*
X152487188Y-94588621D01*
X152460405Y-94591500D01*
X152404513Y-94591500D01*
X152398061Y-94592872D01*
X152398056Y-94592872D01*
X152311338Y-94611305D01*
X152217712Y-94631206D01*
X152211682Y-94633891D01*
X152211681Y-94633891D01*
X152049278Y-94706197D01*
X152049276Y-94706198D01*
X152043248Y-94708882D01*
X151888747Y-94821134D01*
X151884326Y-94826044D01*
X151884325Y-94826045D01*
X151877613Y-94833500D01*
X151760960Y-94963056D01*
X151665473Y-95128444D01*
X151606458Y-95310072D01*
X151586496Y-95500000D01*
X142008500Y-95500000D01*
X142008500Y-93953198D01*
X144692892Y-93953198D01*
X144693249Y-93960015D01*
X144693249Y-93960019D01*
X144697875Y-94048277D01*
X144702370Y-94134047D01*
X144704181Y-94140620D01*
X144704181Y-94140623D01*
X144744565Y-94287237D01*
X144750461Y-94308641D01*
X144834922Y-94468836D01*
X144839327Y-94474049D01*
X144839330Y-94474053D01*
X144947406Y-94601943D01*
X144947410Y-94601947D01*
X144951813Y-94607157D01*
X144957237Y-94611304D01*
X144957238Y-94611305D01*
X145090257Y-94713006D01*
X145090261Y-94713009D01*
X145095678Y-94717150D01*
X145182372Y-94757576D01*
X145253631Y-94790805D01*
X145253634Y-94790806D01*
X145259808Y-94793685D01*
X145266456Y-94795171D01*
X145266459Y-94795172D01*
X145393816Y-94823639D01*
X145436543Y-94833190D01*
X145442088Y-94833500D01*
X145575244Y-94833500D01*
X145710037Y-94818857D01*
X145828190Y-94779094D01*
X145875204Y-94763272D01*
X145875206Y-94763271D01*
X145881675Y-94761094D01*
X146036905Y-94667823D01*
X146041862Y-94663135D01*
X146041865Y-94663133D01*
X146163527Y-94548082D01*
X146163529Y-94548080D01*
X146168485Y-94543393D01*
X146172317Y-94537755D01*
X146172320Y-94537751D01*
X146266442Y-94399255D01*
X146270277Y-94393612D01*
X146337530Y-94225466D01*
X146338644Y-94218738D01*
X146338645Y-94218734D01*
X146365993Y-94053539D01*
X146365993Y-94053536D01*
X146367108Y-94046802D01*
X146366592Y-94036944D01*
X146357987Y-93872766D01*
X146357630Y-93865953D01*
X146334304Y-93781266D01*
X146311352Y-93697941D01*
X146309539Y-93691359D01*
X146305324Y-93683365D01*
X146283919Y-93642765D01*
X146269842Y-93573178D01*
X146295621Y-93507027D01*
X146353072Y-93465315D01*
X146395376Y-93458001D01*
X146577885Y-93458001D01*
X146593124Y-93453526D01*
X146594329Y-93452136D01*
X146596000Y-93444453D01*
X146596000Y-93439886D01*
X147104000Y-93439886D01*
X147108475Y-93455125D01*
X147109865Y-93456330D01*
X147117548Y-93458001D01*
X147297890Y-93458001D01*
X147304035Y-93457701D01*
X147445481Y-93443831D01*
X147457519Y-93441448D01*
X147639651Y-93386459D01*
X147650993Y-93381784D01*
X147818977Y-93292466D01*
X147829193Y-93285679D01*
X147976634Y-93165429D01*
X147985338Y-93156785D01*
X148106610Y-93010192D01*
X148113470Y-93000021D01*
X148203962Y-92832659D01*
X148208714Y-92821354D01*
X148247422Y-92696309D01*
X148247628Y-92682206D01*
X148240873Y-92679001D01*
X147122115Y-92679001D01*
X147106876Y-92683476D01*
X147105671Y-92684866D01*
X147104000Y-92692549D01*
X147104000Y-93439886D01*
X146596000Y-93439886D01*
X146596000Y-92697116D01*
X146591525Y-92681877D01*
X146590135Y-92680672D01*
X146582452Y-92679001D01*
X145466014Y-92679001D01*
X145452483Y-92682974D01*
X145451363Y-92690769D01*
X145485846Y-92807933D01*
X145490439Y-92819302D01*
X145576315Y-92983568D01*
X145590149Y-93053204D01*
X145564139Y-93119264D01*
X145506543Y-93160776D01*
X145478263Y-93167205D01*
X145349963Y-93181143D01*
X145236606Y-93219292D01*
X145184796Y-93236728D01*
X145184794Y-93236729D01*
X145178325Y-93238906D01*
X145023095Y-93332177D01*
X145018138Y-93336865D01*
X145018135Y-93336867D01*
X144907545Y-93441448D01*
X144891515Y-93456607D01*
X144887683Y-93462245D01*
X144887680Y-93462249D01*
X144827217Y-93551218D01*
X144789723Y-93606388D01*
X144722470Y-93774534D01*
X144721356Y-93781262D01*
X144721355Y-93781266D01*
X144696980Y-93928502D01*
X144692892Y-93953198D01*
X142008500Y-93953198D01*
X142008500Y-93198258D01*
X142028502Y-93130137D01*
X142082158Y-93083644D01*
X142152432Y-93073540D01*
X142217012Y-93103034D01*
X142232696Y-93119305D01*
X142254520Y-93146448D01*
X142263104Y-93155214D01*
X142408839Y-93277500D01*
X142418970Y-93284438D01*
X142585693Y-93376095D01*
X142596963Y-93380925D01*
X142778316Y-93438453D01*
X142790310Y-93441003D01*
X142938351Y-93457608D01*
X142945375Y-93458001D01*
X143127886Y-93458001D01*
X143143125Y-93453526D01*
X143144330Y-93452136D01*
X143146001Y-93444453D01*
X143146001Y-93439886D01*
X143654001Y-93439886D01*
X143658476Y-93455125D01*
X143659866Y-93456330D01*
X143667549Y-93458001D01*
X143847891Y-93458001D01*
X143854036Y-93457701D01*
X143995482Y-93443831D01*
X144007520Y-93441448D01*
X144189652Y-93386459D01*
X144200994Y-93381784D01*
X144368978Y-93292466D01*
X144379194Y-93285679D01*
X144526635Y-93165429D01*
X144535339Y-93156785D01*
X144656611Y-93010192D01*
X144663471Y-93000021D01*
X144753963Y-92832659D01*
X144758715Y-92821354D01*
X144797423Y-92696309D01*
X144797629Y-92682206D01*
X144790874Y-92679001D01*
X143672116Y-92679001D01*
X143656877Y-92683476D01*
X143655672Y-92684866D01*
X143654001Y-92692549D01*
X143654001Y-93439886D01*
X143146001Y-93439886D01*
X143146001Y-92297001D01*
X143166003Y-92228880D01*
X143219659Y-92182387D01*
X143272001Y-92171001D01*
X144783987Y-92171001D01*
X144794902Y-92167796D01*
X145452372Y-92167796D01*
X145459127Y-92171001D01*
X146577885Y-92171001D01*
X146593124Y-92166526D01*
X146594329Y-92165136D01*
X146596000Y-92157453D01*
X146596000Y-92152886D01*
X147104000Y-92152886D01*
X147108475Y-92168125D01*
X147109865Y-92169330D01*
X147117548Y-92171001D01*
X148233986Y-92171001D01*
X148247517Y-92167028D01*
X148248637Y-92159233D01*
X148214154Y-92042069D01*
X148209561Y-92030701D01*
X148121414Y-91862090D01*
X148114698Y-91851828D01*
X147995485Y-91703558D01*
X147986897Y-91694788D01*
X147841162Y-91572502D01*
X147831031Y-91565564D01*
X147664308Y-91473907D01*
X147653038Y-91469077D01*
X147471685Y-91411549D01*
X147459691Y-91408999D01*
X147311650Y-91392394D01*
X147304626Y-91392001D01*
X147122115Y-91392001D01*
X147106876Y-91396476D01*
X147105671Y-91397866D01*
X147104000Y-91405549D01*
X147104000Y-92152886D01*
X146596000Y-92152886D01*
X146596000Y-91410116D01*
X146591525Y-91394877D01*
X146590135Y-91393672D01*
X146582452Y-91392001D01*
X146402110Y-91392001D01*
X146395965Y-91392301D01*
X146254519Y-91406171D01*
X146242481Y-91408554D01*
X146060349Y-91463543D01*
X146049007Y-91468218D01*
X145881023Y-91557536D01*
X145870807Y-91564323D01*
X145723366Y-91684573D01*
X145714662Y-91693217D01*
X145593390Y-91839810D01*
X145586530Y-91849981D01*
X145496038Y-92017343D01*
X145491286Y-92028648D01*
X145452578Y-92153693D01*
X145452372Y-92167796D01*
X144794902Y-92167796D01*
X144797518Y-92167028D01*
X144798638Y-92159233D01*
X144764155Y-92042069D01*
X144759562Y-92030701D01*
X144671415Y-91862090D01*
X144664699Y-91851828D01*
X144545486Y-91703558D01*
X144536898Y-91694788D01*
X144391163Y-91572502D01*
X144381032Y-91565564D01*
X144214309Y-91473907D01*
X144203039Y-91469077D01*
X144035497Y-91415930D01*
X143976613Y-91376267D01*
X143948520Y-91311065D01*
X143960137Y-91241025D01*
X144007777Y-91188385D01*
X144053688Y-91171410D01*
X162308489Y-88250642D01*
X162308870Y-88250582D01*
X167029939Y-87510022D01*
X167049465Y-87508500D01*
X177865500Y-87508500D01*
X177933621Y-87528502D01*
G37*
G04 #@! TD.AperFunction*
G04 #@! TD*
M02*
